<svg xmlns="http://www.w3.org/2000/svg" id="canvas" viewBox="510.754 421.044 509.409 150.959"><path d="M 514.46,484.16 C 513.73 486.94, 515.44 491.04, 516.26 497.31 C 517.08 503.59, 517.53 507.98, 518.55 515.55 C 519.58 523.13, 520.37 528.24, 521.39 535.18 C 522.41 542.12, 522.98 545.07, 523.66 550.24 C 524.33 555.42, 524.18 557.62, 524.77 561.05 C 525.36 564.49, 525.38 565.96, 526.59 567.43 C 527.79 568.89, 529.21 568.93, 530.80 568.37 C 532.40 567.80, 534.19 566.88, 534.57 564.60 C 534.94 562.31, 533.81 560.96, 532.66 556.92 C 531.51 552.89, 530.26 550.17, 528.83 544.42 C 527.39 538.67, 526.67 535.02, 525.50 528.16 C 524.32 521.31, 523.84 517.41, 522.96 510.16 C 522.07 502.91, 521.68 499.01, 521.06 491.92 C 520.44 484.82, 520.14 481.20, 519.86 474.68 C 519.57 468.16, 519.46 464.93, 519.65 459.31 C 519.84 453.68, 520.03 450.88, 520.79 446.55 C 521.56 442.22, 522.41 440.27, 523.48 437.65 C 524.54 435.03, 525.14 434.32, 526.10 433.44 C 527.07 432.55, 526.80 432.72, 528.32 433.22 C 529.84 433.72, 530.93 433.72, 533.70 435.94 C 536.47 438.16, 538.57 439.94, 542.17 444.30 C 545.76 448.67, 547.86 451.74, 551.68 457.77 C 555.50 463.79, 557.54 467.55, 561.25 474.41 C 564.95 481.28, 566.85 485.17, 570.21 492.12 C 573.57 499.06, 575.22 502.68, 578.05 509.13 C 580.88 515.59, 582.20 518.80, 584.35 524.38 C 586.51 529.96, 587.37 532.61, 588.83 537.03 C 590.29 541.45, 590.51 543.41, 591.65 546.47 C 592.79 549.54, 593.15 551.35, 594.52 552.37 C 595.89 553.38, 597.66 553.15, 598.50 551.57 C 599.35 549.98, 599.46 547.81, 598.76 544.44 C 598.05 541.07, 596.86 539.15, 594.99 534.71 C 593.13 530.28, 591.90 527.78, 589.41 522.26 C 586.91 516.74, 585.51 513.55, 582.52 507.11 C 579.53 500.67, 577.85 497.06, 574.47 490.06 C 571.09 483.06, 569.22 479.15, 565.62 472.12 C 562.03 465.09, 560.09 461.27, 556.50 454.89 C 552.91 448.50, 551.12 445.27, 547.67 440.20 C 544.22 435.12, 542.76 432.71, 539.26 429.51 C 535.75 426.30, 533.80 424.73, 530.14 424.19 C 526.48 423.64, 523.84 424.68, 520.95 426.78 C 518.06 428.88, 517.09 430.90, 515.70 434.68 C 514.32 438.47, 514.40 440.80, 514.03 445.72 C 513.66 450.64, 513.73 453.42, 513.85 459.27 C 513.97 465.12, 514.19 468.35, 514.63 474.97 C 515.07 481.59, 515.42 485.21, 516.06 492.36 C 516.70 499.51, 517.09 503.41, 517.83 510.73 C 518.56 518.05, 518.99 521.98, 519.75 528.97 C 520.51 535.95, 521.01 539.67, 521.61 545.67 C 522.21 551.67, 522.18 554.68, 522.75 558.97 C 523.32 563.25, 523.02 565.11, 524.45 567.10 C 525.88 569.08, 528.09 569.13, 529.90 568.92 C 531.71 568.71, 532.96 567.93, 533.50 566.05 C 534.04 564.16, 533.36 562.88, 532.59 559.50 C 531.83 556.13, 530.82 554.21, 529.69 549.18 C 528.55 544.14, 528.07 541.18, 526.92 534.31 C 525.77 527.44, 524.99 522.34, 523.92 514.81 C 522.85 507.27, 522.37 502.90, 521.56 496.63 C 520.76 490.35, 521.32 485.94, 519.89 483.45 C 518.47 480.95, 515.19 481.39, 514.46 484.16" style="stroke: black; fill: black;"/><path d="M 517.72,525.51 C 518.91 526.69, 519.74 527.21, 522.24 527.06 C 524.74 526.90, 526.04 525.86, 530.22 524.72 C 534.39 523.59, 537.30 522.72, 543.13 521.37 C 548.96 520.01, 552.67 519.41, 559.38 517.95 C 566.08 516.49, 569.89 515.75, 576.64 514.08 C 583.39 512.42, 586.91 511.53, 593.11 509.63 C 599.30 507.74, 602.33 506.79, 607.63 504.62 C 612.93 502.45, 615.42 501.37, 619.62 498.79 C 623.83 496.21, 625.71 494.88, 628.65 491.71 C 631.58 488.54, 632.72 486.66, 634.29 482.95 C 635.87 479.25, 636.15 477.04, 636.52 473.19 C 636.89 469.34, 636.79 467.17, 636.14 463.69 C 635.50 460.21, 635.01 458.22, 633.30 455.79 C 631.60 453.35, 630.13 452.24, 627.61 451.52 C 625.08 450.80, 623.11 450.96, 620.69 452.19 C 618.27 453.42, 616.41 454.70, 615.51 457.67 C 614.62 460.63, 615.45 462.76, 616.24 467.01 C 617.02 471.26, 617.92 473.91, 619.44 478.92 C 620.97 483.94, 621.88 486.90, 623.84 492.07 C 625.80 497.24, 626.94 500.05, 629.25 504.77 C 631.57 509.50, 632.87 511.79, 635.41 515.69 C 637.96 519.58, 639.28 521.30, 641.98 524.24 C 644.68 527.18, 645.93 528.69, 648.91 530.40 C 651.88 532.11, 653.70 532.44, 656.86 532.80 C 660.01 533.16, 661.70 532.92, 664.70 532.19 C 667.70 531.47, 669.20 530.70, 671.85 529.17 C 674.49 527.64, 675.69 526.43, 677.92 524.55 C 680.15 522.67, 681.13 521.48, 682.99 519.76 C 684.86 518.03, 685.66 517.09, 687.25 515.93 C 688.85 514.77, 689.53 514.33, 690.97 513.95 C 692.42 513.57, 693.04 513.67, 694.48 514.04 C 695.92 514.42, 696.66 514.91, 698.17 515.85 C 699.67 516.79, 700.53 517.49, 702.00 518.74 C 703.48 519.99, 704.32 520.80, 705.55 522.10 C 706.77 523.40, 707.39 524.14, 708.13 525.25 C 708.87 526.36, 709.18 526.81, 709.24 527.66 C 709.31 528.51, 709.28 528.72, 708.46 529.50 C 707.65 530.28, 707.03 530.41, 705.18 531.56 C 703.32 532.72, 702.30 533.94, 699.20 535.27 C 696.11 536.60, 693.90 537.30, 689.70 538.21 C 685.49 539.11, 682.86 539.46, 678.18 539.82 C 673.50 540.18, 670.75 540.20, 666.29 540.00 C 661.84 539.79, 659.38 539.47, 655.89 538.80 C 652.40 538.13, 650.93 537.01, 648.84 536.65 C 646.76 536.29, 646.06 536.67, 645.47 537.01 C 644.89 537.35, 645.02 538.09, 645.94 538.35 C 646.85 538.61, 647.65 539.11, 650.05 538.30 C 652.45 537.50, 653.88 535.82, 657.93 534.33 C 661.99 532.83, 664.79 532.03, 670.33 530.83 C 675.88 529.62, 679.33 529.18, 685.67 528.32 C 692.01 527.45, 695.58 527.13, 702.05 526.50 C 708.52 525.87, 711.97 525.67, 718.01 525.17 C 724.06 524.66, 727.05 524.48, 732.26 523.99 C 737.48 523.50, 739.84 523.22, 744.10 522.71 C 748.35 522.21, 750.29 522.32, 753.54 521.47 C 756.79 520.62, 758.18 520.04, 760.32 518.46 C 762.46 516.88, 763.32 515.79, 764.23 513.58 C 765.15 511.38, 765.43 509.84, 764.91 507.43 C 764.40 505.01, 763.67 503.31, 761.66 501.51 C 759.65 499.71, 757.92 498.93, 754.88 498.42 C 751.84 497.92, 749.81 497.98, 746.46 499.00 C 743.10 500.02, 741.30 501.26, 738.12 503.54 C 734.93 505.81, 733.15 507.25, 730.53 510.37 C 727.91 513.48, 726.45 515.36, 725.01 519.11 C 723.57 522.86, 722.94 525.22, 723.32 529.12 C 723.70 533.01, 724.62 535.38, 726.92 538.58 C 729.21 541.78, 731.17 543.12, 734.81 545.10 C 738.44 547.09, 740.80 547.68, 745.09 548.50 C 749.38 549.32, 751.84 549.38, 756.28 549.19 C 760.72 548.99, 763.07 548.58, 767.30 547.52 C 771.53 546.46, 773.79 545.84, 777.42 543.91 C 781.05 541.97, 782.87 540.72, 785.47 537.86 C 788.07 535.00, 789.32 533.19, 790.43 529.61 C 791.55 526.04, 791.67 523.72, 791.04 520.00 C 790.42 516.27, 789.37 514.11, 787.29 511.01 C 785.22 507.91, 783.56 506.48, 780.66 504.49 C 777.75 502.49, 775.81 501.60, 772.76 501.04 C 769.71 500.48, 767.79 500.51, 765.40 501.69 C 763.00 502.87, 761.32 505.02, 760.77 506.95 C 760.22 508.88, 761.44 510.92, 762.64 511.34 C 763.84 511.76, 766.10 509.58, 766.77 509.05 C 767.45 508.51, 766.07 508.20, 766.00 508.66 C 765.93 509.11, 765.76 510.47, 766.42 511.33 C 767.08 512.19, 767.87 512.21, 769.30 512.95 C 770.73 513.69, 771.94 513.98, 773.56 515.03 C 775.17 516.08, 776.14 516.72, 777.38 518.20 C 778.62 519.67, 779.22 520.72, 779.75 522.40 C 780.28 524.09, 780.41 524.90, 780.01 526.65 C 779.61 528.39, 779.20 529.35, 777.76 531.14 C 776.31 532.93, 775.33 534.08, 772.79 535.59 C 770.24 537.10, 768.41 537.80, 765.04 538.69 C 761.68 539.57, 759.57 539.93, 755.97 540.00 C 752.38 540.07, 750.31 539.81, 747.08 539.04 C 743.85 538.27, 742.11 537.49, 739.81 536.15 C 737.51 534.82, 736.72 533.95, 735.58 532.36 C 734.45 530.78, 734.24 530.04, 734.15 528.23 C 734.06 526.41, 734.19 525.35, 735.15 523.29 C 736.10 521.23, 737.02 519.81, 738.91 517.94 C 740.80 516.06, 742.32 515.03, 744.58 513.92 C 746.84 512.80, 748.33 512.79, 750.20 512.35 C 752.07 511.91, 752.76 511.91, 753.93 511.71 C 755.10 511.51, 755.40 511.64, 756.06 511.36 C 756.71 511.07, 756.94 510.59, 757.20 510.28 C 757.47 509.97, 757.70 509.74, 757.37 509.79 C 757.05 509.84, 756.89 510.02, 755.56 510.53 C 754.23 511.03, 753.29 511.37, 750.71 512.32 C 748.13 513.27, 746.51 514.22, 742.66 515.28 C 738.81 516.34, 736.49 516.81, 731.45 517.62 C 726.41 518.44, 723.45 518.71, 717.46 519.35 C 711.48 519.99, 708.01 520.22, 701.52 520.81 C 695.02 521.39, 691.44 521.67, 684.98 522.27 C 678.52 522.87, 675.06 523.16, 669.20 523.79 C 663.35 524.43, 660.48 524.71, 655.70 525.44 C 650.91 526.17, 648.41 525.81, 645.26 527.46 C 642.10 529.11, 640.92 530.97, 639.93 533.68 C 638.94 536.40, 639.17 538.48, 640.30 541.02 C 641.42 543.56, 642.66 545.07, 645.55 546.39 C 648.43 547.72, 650.63 547.33, 654.73 547.65 C 658.84 547.97, 661.31 547.97, 666.09 547.99 C 670.88 548.02, 673.66 548.02, 678.66 547.79 C 683.66 547.56, 686.37 547.39, 691.10 546.84 C 695.83 546.30, 698.20 546.02, 702.31 545.06 C 706.42 544.10, 708.61 543.91, 711.64 542.05 C 714.68 540.19, 715.86 538.51, 717.49 535.75 C 719.13 533.00, 719.54 531.26, 719.82 528.27 C 720.11 525.27, 719.81 523.59, 718.92 520.78 C 718.03 517.97, 717.13 516.60, 715.38 514.21 C 713.64 511.81, 712.54 510.69, 710.21 508.80 C 707.88 506.91, 706.51 505.96, 703.74 504.75 C 700.96 503.54, 699.34 503.10, 696.33 502.75 C 693.33 502.39, 691.71 502.45, 688.70 502.99 C 685.70 503.54, 684.11 504.12, 681.31 505.46 C 678.50 506.80, 677.11 507.85, 674.68 509.68 C 672.24 511.51, 671.15 512.74, 669.14 514.60 C 667.12 516.46, 666.20 517.51, 664.61 519.00 C 663.02 520.48, 662.52 521.25, 661.19 522.03 C 659.85 522.80, 659.40 523.00, 657.94 522.85 C 656.47 522.71, 655.83 522.29, 653.84 521.31 C 651.86 520.33, 650.47 519.95, 648.03 517.95 C 645.60 515.95, 644.14 514.58, 641.67 511.31 C 639.19 508.03, 637.84 505.93, 635.67 501.59 C 633.50 497.26, 632.39 494.54, 630.81 489.62 C 629.22 484.70, 628.50 481.74, 627.75 476.99 C 627.00 472.24, 627.10 469.49, 627.05 465.86 C 626.99 462.23, 627.90 460.70, 627.48 458.84 C 627.06 456.98, 625.87 456.79, 624.95 456.56 C 624.03 456.33, 623.29 456.78, 622.87 457.68 C 622.45 458.58, 622.48 459.33, 622.88 461.06 C 623.27 462.78, 624.13 463.93, 624.84 466.31 C 625.56 468.69, 626.23 470.23, 626.45 472.96 C 626.67 475.69, 626.68 477.20, 625.94 479.95 C 625.19 482.69, 624.73 484.03, 622.72 486.67 C 620.72 489.31, 619.39 490.66, 615.90 493.15 C 612.41 495.65, 610.15 496.91, 605.26 499.16 C 600.37 501.41, 597.44 502.47, 591.46 504.39 C 585.48 506.32, 582.01 507.24, 575.37 508.78 C 568.73 510.33, 564.96 511.02, 558.26 512.12 C 551.57 513.22, 547.85 513.59, 541.89 514.29 C 535.93 515.00, 532.90 515.12, 528.45 515.66 C 524.01 516.20, 522.11 515.89, 519.67 516.99 C 517.24 518.09, 516.67 519.47, 516.27 521.17 C 515.88 522.88, 516.53 524.33, 517.72 525.51" style="stroke: black; fill: black;"/><path d="M 815.13,505.39 C 813.43 505.70, 812.49 506.29, 811.22 508.22 C 809.94 510.14, 808.81 511.80, 808.76 515.03 C 808.71 518.25, 809.61 520.63, 810.97 524.34 C 812.34 528.06, 813.28 530.25, 815.57 533.60 C 817.87 536.96, 819.29 538.70, 822.45 541.13 C 825.61 543.56, 827.58 544.55, 831.37 545.75 C 835.16 546.95, 837.36 547.16, 841.41 547.14 C 845.45 547.12, 847.62 546.74, 851.58 545.65 C 855.54 544.56, 857.56 543.71, 861.20 541.69 C 864.83 539.67, 866.66 538.31, 869.75 535.54 C 872.85 532.76, 874.31 530.93, 876.66 527.82 C 879.01 524.71, 880.55 522.93, 881.51 520.00 C 882.46 517.07, 882.33 515.14, 881.43 513.17 C 880.53 511.19, 878.99 510.20, 877.01 510.14 C 875.04 510.07, 872.98 510.79, 871.54 512.85 C 870.10 514.90, 869.22 517.20, 869.81 520.42 C 870.40 523.63, 872.24 525.62, 874.49 528.93 C 876.73 532.24, 878.09 534.06, 881.04 536.97 C 883.99 539.88, 885.72 541.36, 889.24 543.48 C 892.77 545.59, 894.77 546.46, 898.65 547.55 C 902.54 548.64, 904.68 548.96, 908.67 548.94 C 912.66 548.92, 914.82 548.68, 918.61 547.45 C 922.41 546.23, 924.40 545.29, 927.65 542.83 C 930.91 540.37, 932.43 538.75, 934.90 535.16 C 937.36 531.58, 938.35 529.39, 939.98 524.90 C 941.61 520.41, 942.17 517.75, 943.03 512.70 C 943.90 507.66, 944.06 504.75, 944.31 499.66 C 944.57 494.56, 944.40 491.81, 944.31 487.24 C 944.21 482.67, 944.62 480.19, 943.84 476.83 C 943.05 473.46, 942.27 471.79, 940.38 470.43 C 938.50 469.08, 936.50 469.00, 934.41 470.03 C 932.31 471.05, 930.29 472.54, 929.91 475.56 C 929.52 478.59, 931.12 480.72, 932.50 485.14 C 933.87 489.57, 934.92 492.48, 936.80 497.68 C 938.68 502.89, 939.77 505.97, 941.91 511.17 C 944.05 516.38, 945.29 519.03, 947.51 523.72 C 949.73 528.40, 950.98 530.62, 953.01 534.60 C 955.05 538.57, 955.78 540.99, 957.70 543.60 C 959.61 546.22, 960.83 546.86, 962.59 547.65 C 964.35 548.45, 965.00 548.08, 966.52 547.58 C 968.04 547.08, 968.80 546.38, 970.17 545.15 C 971.55 543.92, 973.47 542.31, 973.39 541.43 C 973.31 540.56, 971.98 540.32, 969.76 540.78 C 967.54 541.24, 964.25 542.61, 962.30 543.75 C 960.35 544.88, 959.59 545.99, 960.00 546.45 C 960.42 546.91, 962.88 546.39, 964.39 546.05 C 965.90 545.71, 966.77 545.50, 967.56 544.74 C 968.35 543.97, 968.68 543.64, 968.34 542.22 C 968.00 540.79, 967.59 539.95, 965.88 537.61 C 964.17 535.27, 962.20 533.91, 959.77 530.51 C 957.35 527.11, 956.03 525.00, 953.77 520.62 C 951.50 516.24, 950.31 513.66, 948.45 508.62 C 946.60 503.58, 945.67 500.53, 944.48 495.40 C 943.29 490.27, 943.01 487.23, 942.52 482.98 C 942.02 478.73, 943.01 476.52, 942.00 474.16 C 941.00 471.79, 939.11 471.38, 937.48 471.16 C 935.84 470.94, 934.56 471.52, 933.83 473.05 C 933.09 474.58, 933.35 475.82, 933.80 478.79 C 934.25 481.75, 935.51 483.76, 936.09 487.87 C 936.66 491.98, 936.80 494.66, 936.66 499.35 C 936.52 504.04, 936.28 506.80, 935.40 511.31 C 934.52 515.83, 933.82 518.20, 932.27 521.92 C 930.73 525.64, 929.70 527.28, 927.66 529.92 C 925.62 532.55, 924.46 533.47, 922.06 535.09 C 919.67 536.71, 918.37 537.24, 915.68 538.03 C 912.99 538.82, 911.50 539.05, 908.63 539.06 C 905.76 539.07, 904.15 538.89, 901.33 538.09 C 898.51 537.28, 897.00 536.68, 894.54 535.04 C 892.07 533.40, 890.74 532.25, 889.00 529.89 C 887.27 527.52, 886.62 525.88, 885.85 523.21 C 885.09 520.54, 885.96 518.71, 885.20 516.55 C 884.44 514.39, 883.62 513.61, 882.06 512.43 C 880.49 511.26, 879.17 510.85, 877.36 510.68 C 875.55 510.51, 874.45 510.61, 872.99 511.58 C 871.54 512.55, 871.11 513.43, 870.10 515.53 C 869.08 517.63, 869.30 519.48, 867.90 522.07 C 866.51 524.66, 865.40 526.23, 863.13 528.48 C 860.87 530.73, 859.38 531.79, 856.57 533.33 C 853.76 534.88, 852.11 535.45, 849.08 536.21 C 846.05 536.97, 844.33 537.16, 841.41 537.14 C 838.49 537.11, 836.96 536.91, 834.47 536.09 C 831.98 535.28, 830.83 534.70, 828.96 533.07 C 827.10 531.43, 826.25 530.30, 825.13 527.92 C 824.00 525.54, 823.66 523.85, 823.36 521.15 C 823.07 518.45, 823.95 516.71, 823.67 514.42 C 823.40 512.13, 822.79 511.26, 822.00 509.71 C 821.21 508.16, 821.09 507.53, 819.72 506.66 C 818.34 505.80, 816.83 505.08, 815.13 505.39" style="stroke: black; fill: black;"/><path d="M 921.19,522.57 C 922.37 523.79, 923.17 524.36, 925.83 524.29 C 928.49 524.22, 930.01 522.99, 934.50 522.20 C 938.98 521.41, 942.18 520.88, 948.26 520.32 C 954.34 519.77, 958.21 519.61, 964.90 519.42 C 971.59 519.23, 975.34 519.20, 981.69 519.35 C 988.05 519.51, 991.52 519.75, 996.66 520.21 C 1001.80 520.66, 1004.02 521.29, 1007.39 521.63 C 1010.75 521.97, 1011.72 522.21, 1013.48 521.90 C 1015.24 521.59, 1015.58 520.72, 1016.18 520.08 C 1016.77 519.45, 1016.31 519.06, 1016.46 518.73 C 1016.61 518.40, 1016.84 518.85, 1016.92 518.42 C 1017.01 518.00, 1017.43 517.48, 1016.90 516.61 C 1016.37 515.74, 1016.06 514.75, 1014.27 514.09 C 1012.47 513.42, 1011.38 513.37, 1007.91 513.28 C 1004.44 513.19, 1002.15 513.60, 996.93 513.64 C 991.70 513.68, 988.21 513.52, 981.79 513.48 C 975.37 513.43, 971.60 513.45, 964.83 513.42 C 958.06 513.38, 954.18 513.29, 947.94 513.30 C 941.70 513.30, 938.44 513.30, 933.63 513.44 C 928.81 513.57, 926.61 513.00, 923.87 513.96 C 921.12 514.91, 920.44 516.48, 919.90 518.20 C 919.37 519.93, 920.00 521.35, 921.19 522.57" style="stroke: black; fill: black;"/></svg>