<svg xmlns="http://www.w3.org/2000/svg" id="canvas" viewBox="570.191 414.036 405.389 209.724"><path d="M 592.85,432.06 C 591.81 433.74, 592.23 435.69, 592.61 439.71 C 592.98 443.74, 593.88 446.44, 594.73 452.18 C 595.58 457.93, 596.14 461.75, 596.87 468.43 C 597.61 475.11, 597.98 478.82, 598.42 485.60 C 598.86 492.38, 598.98 495.97, 599.07 502.32 C 599.15 508.67, 599.10 511.94, 598.86 517.34 C 598.62 522.74, 598.45 525.35, 597.86 529.33 C 597.28 533.30, 596.13 534.83, 595.93 537.21 C 595.74 539.59, 596.24 540.25, 596.89 541.23 C 597.54 542.21, 598.54 542.08, 599.18 542.10 C 599.83 542.12, 600.52 541.19, 600.12 541.32 C 599.71 541.44, 597.36 542.18, 597.16 542.73 C 596.96 543.28, 597.99 544.03, 599.11 544.07 C 600.23 544.10, 601.54 544.00, 602.78 542.91 C 604.02 541.81, 604.77 541.20, 605.31 538.58 C 605.85 535.97, 605.52 534.06, 605.47 529.82 C 605.42 525.58, 605.22 522.91, 605.05 517.38 C 604.88 511.85, 604.84 508.60, 604.62 502.18 C 604.39 495.77, 604.26 492.15, 603.93 485.29 C 603.59 478.43, 603.40 474.68, 602.95 467.90 C 602.51 461.11, 602.22 457.21, 601.70 451.35 C 601.18 445.50, 601.11 442.62, 600.34 438.61 C 599.56 434.60, 599.33 432.62, 597.83 431.31 C 596.33 430.00, 593.90 430.38, 592.85 432.06" style="stroke: black; fill: black;"/><path d="M 579.61,447.71 C 581.38 447.50, 582.22 446.68, 583.64 445.13 C 585.06 443.59, 585.17 442.29, 586.72 439.97 C 588.27 437.65, 588.83 435.85, 591.39 433.53 C 593.96 431.21, 595.79 430.03, 599.53 428.38 C 603.28 426.73, 605.70 426.05, 610.11 425.30 C 614.52 424.55, 617.10 424.35, 621.57 424.65 C 626.04 424.95, 628.47 425.47, 632.44 426.80 C 636.40 428.13, 638.45 429.18, 641.38 431.28 C 644.32 433.39, 645.53 434.78, 647.11 437.31 C 648.69 439.85, 649.11 441.13, 649.27 443.96 C 649.43 446.79, 649.18 448.33, 647.91 451.46 C 646.64 454.59, 645.43 456.45, 642.92 459.61 C 640.40 462.76, 638.46 464.58, 635.33 467.23 C 632.19 469.89, 629.90 470.70, 627.24 472.87 C 624.58 475.04, 623.11 475.78, 622.04 478.08 C 620.98 480.39, 621.13 482.06, 621.92 484.41 C 622.70 486.75, 623.52 488.53, 625.98 489.81 C 628.44 491.10, 630.26 490.48, 634.21 490.85 C 638.17 491.21, 640.81 490.92, 645.75 491.64 C 650.68 492.36, 653.71 492.91, 658.88 494.45 C 664.05 495.99, 666.97 497.05, 671.60 499.34 C 676.22 501.64, 678.58 503.12, 682.00 505.93 C 685.42 508.74, 686.85 510.44, 688.69 513.40 C 690.53 516.36, 690.91 517.83, 691.20 520.73 C 691.49 523.63, 691.31 524.95, 690.16 527.92 C 689.01 530.88, 688.11 532.52, 685.44 535.56 C 682.77 538.60, 680.91 540.30, 676.83 543.12 C 672.74 545.95, 670.15 547.44, 665.03 549.69 C 659.90 551.94, 656.81 552.94, 651.21 554.37 C 645.61 555.81, 642.45 556.33, 637.04 556.87 C 631.64 557.41, 628.75 557.44, 624.18 557.06 C 619.62 556.68, 617.43 556.10, 614.21 554.96 C 611.00 553.82, 610.09 552.29, 608.12 551.36 C 606.15 550.43, 605.59 550.70, 604.37 550.32 C 603.15 549.95, 603.06 549.36, 602.01 549.49 C 600.96 549.62, 599.66 549.88, 599.13 550.99 C 598.59 552.11, 598.48 553.25, 599.32 555.06 C 600.15 556.88, 600.73 558.49, 603.29 560.07 C 605.85 561.65, 607.99 562.19, 612.11 562.98 C 616.23 563.76, 618.75 563.96, 623.88 563.99 C 629.01 564.03, 631.98 563.88, 637.75 563.16 C 643.52 562.44, 646.78 561.89, 652.74 560.39 C 658.70 558.88, 661.95 557.93, 667.54 555.66 C 673.14 553.38, 675.98 552.00, 680.71 549.02 C 685.44 546.05, 687.76 544.42, 691.18 540.79 C 694.60 537.16, 696.20 535.07, 697.81 530.87 C 699.42 526.67, 699.79 524.11, 699.24 519.79 C 698.69 515.47, 697.63 513.15, 695.06 509.28 C 692.49 505.42, 690.47 503.65, 686.39 500.45 C 682.30 497.25, 679.68 495.84, 674.62 493.29 C 669.57 490.74, 666.52 489.68, 661.11 487.71 C 655.71 485.74, 652.63 484.94, 647.58 483.43 C 642.54 481.92, 639.82 481.03, 635.89 480.16 C 631.96 479.29, 630.07 478.62, 627.92 479.07 C 625.77 479.53, 625.16 481.40, 625.14 482.43 C 625.12 483.46, 626.13 484.53, 627.83 484.22 C 629.53 483.92, 630.95 483.02, 633.65 480.92 C 636.36 478.82, 638.16 476.95, 641.35 473.72 C 644.54 470.50, 646.72 468.64, 649.62 464.81 C 652.52 460.98, 654.21 458.87, 655.85 454.58 C 657.49 450.29, 658.16 447.72, 657.83 443.37 C 657.50 439.02, 656.57 436.55, 654.19 432.83 C 651.81 429.11, 649.81 427.41, 645.92 424.76 C 642.04 422.12, 639.54 421.12, 634.77 419.61 C 630.01 418.10, 627.25 417.60, 622.09 417.22 C 616.93 416.85, 614.09 417.05, 608.98 417.72 C 603.87 418.39, 601.24 419.00, 596.55 420.57 C 591.86 422.15, 589.39 423.14, 585.52 425.59 C 581.64 428.04, 579.61 429.82, 577.18 432.81 C 574.74 435.79, 573.82 437.84, 573.34 440.52 C 572.87 443.21, 573.55 444.79, 574.81 446.22 C 576.06 447.66, 577.85 447.93, 579.61 447.71" style="stroke: black; fill: black;"/><path d="M 714.22,440.04 C 713.03 441.57, 712.93 443.42, 713.30 446.77 C 713.66 450.12, 714.80 452.15, 716.04 456.78 C 717.28 461.41, 718.09 464.46, 719.50 469.91 C 720.91 475.36, 721.69 478.35, 723.09 484.01 C 724.48 489.67, 725.14 492.69, 726.48 498.22 C 727.82 503.75, 728.47 506.58, 729.78 511.65 C 731.10 516.71, 731.72 519.16, 733.06 523.53 C 734.40 527.90, 734.95 529.91, 736.48 533.48 C 738.02 537.05, 738.69 538.95, 740.74 541.38 C 742.79 543.80, 744.52 544.62, 746.73 545.60 C 748.93 546.58, 750.14 546.50, 751.76 546.28 C 753.39 546.05, 754.25 545.55, 754.85 544.49 C 755.46 543.42, 755.06 542.00, 754.78 540.95 C 754.49 539.90, 754.00 540.00, 753.43 539.26 C 752.86 538.51, 752.90 538.22, 751.94 537.23 C 750.97 536.23, 750.14 535.86, 748.60 534.30 C 747.07 532.74, 745.97 532.09, 744.27 529.44 C 742.57 526.78, 741.71 524.95, 740.09 521.02 C 738.48 517.10, 737.70 514.69, 736.21 509.83 C 734.71 504.96, 733.98 502.16, 732.62 496.71 C 731.26 491.26, 730.61 488.24, 729.41 482.56 C 728.22 476.89, 727.64 473.85, 726.62 468.33 C 725.60 462.81, 725.12 459.67, 724.31 454.96 C 723.50 450.26, 723.57 447.99, 722.56 444.81 C 721.54 441.63, 720.91 440.03, 719.24 439.07 C 717.58 438.12, 715.41 438.50, 714.22 440.04" style="stroke: black; fill: black;"/><path d="M 816.77,506.69 C 816.95 504.90, 816.55 503.56, 814.90 502.01 C 813.24 500.46, 811.60 499.41, 808.51 498.92 C 805.42 498.43, 802.98 498.40, 799.45 499.56 C 795.91 500.71, 794.03 502.27, 790.84 504.70 C 787.64 507.13, 785.94 508.54, 783.47 511.71 C 781.00 514.88, 779.70 516.79, 778.48 520.55 C 777.27 524.31, 776.80 526.68, 777.41 530.51 C 778.01 534.33, 779.07 536.60, 781.51 539.68 C 783.95 542.75, 785.91 544.06, 789.61 545.89 C 793.31 547.72, 795.69 548.25, 800.02 548.83 C 804.34 549.40, 806.84 549.27, 811.25 548.77 C 815.66 548.27, 818.03 547.73, 822.08 546.33 C 826.13 544.92, 828.21 544.04, 831.48 541.73 C 834.75 539.43, 836.60 538.01, 838.43 534.81 C 840.25 531.61, 840.66 529.35, 840.61 525.75 C 840.57 522.14, 839.94 520.01, 838.21 516.80 C 836.48 513.60, 834.88 511.92, 831.98 509.73 C 829.07 507.53, 826.86 506.71, 823.70 505.83 C 820.54 504.95, 818.64 504.94, 816.16 505.33 C 813.67 505.71, 812.59 506.69, 811.28 507.75 C 809.98 508.81, 809.78 509.54, 809.61 510.63 C 809.45 511.71, 809.98 512.30, 810.47 513.17 C 810.96 514.03, 811.14 514.12, 812.05 514.94 C 812.97 515.76, 813.49 516.52, 815.04 517.28 C 816.59 518.04, 817.84 518.07, 819.79 518.74 C 821.74 519.41, 823.04 519.74, 824.80 520.62 C 826.57 521.50, 827.50 522.04, 828.61 523.13 C 829.72 524.22, 830.21 524.84, 830.33 526.09 C 830.45 527.33, 830.15 527.84, 829.19 529.35 C 828.24 530.87, 827.60 532.04, 825.54 533.66 C 823.47 535.28, 821.94 536.31, 818.88 537.47 C 815.82 538.63, 813.74 539.11, 810.26 539.45 C 806.77 539.79, 804.65 539.73, 801.47 539.18 C 798.29 538.62, 796.62 537.91, 794.33 536.67 C 792.04 535.43, 791.23 534.53, 790.03 532.98 C 788.83 531.42, 788.54 530.67, 788.32 528.90 C 788.10 527.13, 788.17 526.13, 788.93 524.12 C 789.69 522.10, 790.41 520.73, 792.12 518.83 C 793.82 516.93, 795.25 515.80, 797.46 514.62 C 799.67 513.44, 801.17 513.31, 803.15 512.93 C 805.14 512.56, 805.87 512.87, 807.39 512.75 C 808.91 512.63, 809.43 512.70, 810.75 512.34 C 812.08 511.99, 812.83 512.10, 814.04 510.96 C 815.24 509.83, 816.60 508.48, 816.77 506.69" style="stroke: black; fill: black;"/><path d="M 906.83,506.58 C 906.48 504.79, 905.74 503.67, 903.67 502.40 C 901.59 501.14, 899.73 500.25, 896.48 500.24 C 893.22 500.22, 890.96 501.04, 887.38 502.34 C 883.80 503.63, 881.85 504.67, 878.58 506.69 C 875.31 508.70, 873.25 509.67, 871.03 512.41 C 868.82 515.15, 867.94 517.18, 867.50 520.38 C 867.07 523.57, 867.44 525.61, 868.87 528.38 C 870.30 531.16, 871.76 532.71, 874.65 534.24 C 877.54 535.77, 879.70 536.20, 883.30 536.04 C 886.91 535.87, 888.95 534.77, 892.68 533.41 C 896.40 532.05, 898.37 530.98, 901.92 529.23 C 905.47 527.48, 907.30 526.31, 910.42 524.67 C 913.54 523.03, 915.31 522.43, 917.52 521.04 C 919.72 519.65, 920.41 518.56, 921.43 517.73 C 922.46 516.89, 922.31 516.45, 922.64 516.84 C 922.97 517.23, 922.26 517.90, 923.08 519.67 C 923.90 521.45, 925.04 522.56, 926.75 525.71 C 928.46 528.86, 929.74 531.05, 931.62 535.42 C 933.51 539.80, 934.54 542.48, 936.19 547.56 C 937.85 552.64, 938.74 555.53, 939.90 560.82 C 941.07 566.10, 941.61 568.95, 942.04 573.99 C 942.46 579.04, 942.47 581.61, 942.02 586.04 C 941.57 590.47, 941.13 592.59, 939.78 596.14 C 938.44 599.68, 937.44 601.19, 935.28 603.77 C 933.12 606.35, 931.96 607.37, 929.01 609.04 C 926.05 610.71, 924.33 611.32, 920.51 612.12 C 916.70 612.91, 914.39 613.13, 909.92 613.02 C 905.46 612.91, 902.89 612.54, 898.18 611.55 C 893.48 610.57, 890.78 609.75, 886.41 608.10 C 882.03 606.46, 879.75 605.40, 876.30 603.33 C 872.86 601.27, 871.26 599.94, 869.18 597.79 C 867.10 595.63, 866.60 594.42, 865.90 592.55 C 865.19 590.67, 865.23 590.24, 865.66 588.41 C 866.10 586.57, 866.29 585.60, 868.05 583.39 C 869.81 581.17, 871.11 579.69, 874.47 577.33 C 877.83 574.97, 880.09 573.62, 884.87 571.57 C 889.64 569.52, 892.59 568.56, 898.32 567.08 C 904.06 565.60, 907.43 565.06, 913.55 564.19 C 919.68 563.32, 922.96 563.03, 928.96 562.73 C 934.97 562.43, 938.05 562.47, 943.58 562.69 C 949.11 562.92, 952.14 563.40, 956.61 563.84 C 961.09 564.29, 962.96 565.06, 965.96 564.92 C 968.96 564.78, 970.42 564.22, 971.61 563.15 C 972.79 562.08, 972.90 560.80, 971.90 559.55 C 970.90 558.30, 969.57 557.51, 966.60 556.90 C 963.63 556.28, 961.64 556.58, 957.05 556.49 C 952.46 556.39, 949.34 556.34, 943.66 556.43 C 937.98 556.51, 934.81 556.52, 928.64 556.90 C 922.46 557.29, 919.12 557.55, 912.77 558.36 C 906.42 559.17, 902.97 559.65, 896.88 560.97 C 890.79 562.29, 887.67 563.10, 882.31 564.97 C 876.95 566.84, 874.35 567.87, 870.06 570.34 C 865.77 572.80, 863.69 574.08, 860.85 577.27 C 858.02 580.46, 856.68 582.52, 855.90 586.29 C 855.11 590.06, 855.49 592.55, 856.94 596.10 C 858.40 599.66, 860.06 601.25, 863.16 604.06 C 866.27 606.87, 868.33 607.97, 872.47 610.16 C 876.62 612.36, 879.05 613.32, 883.88 615.03 C 888.72 616.75, 891.50 617.62, 896.65 618.74 C 901.80 619.85, 904.56 620.39, 909.64 620.63 C 914.73 620.87, 917.39 620.85, 922.08 619.95 C 926.76 619.04, 929.16 618.36, 933.05 616.13 C 936.93 613.90, 938.73 612.30, 941.50 608.81 C 944.26 605.32, 945.37 603.10, 946.87 598.67 C 948.37 594.23, 948.63 591.69, 948.99 586.64 C 949.35 581.59, 949.19 578.84, 948.68 573.40 C 948.17 567.96, 947.56 565.01, 946.44 559.44 C 945.32 553.87, 944.47 550.92, 943.10 545.56 C 941.72 540.19, 940.93 537.42, 939.56 532.61 C 938.20 527.80, 937.67 525.39, 936.27 521.50 C 934.87 517.62, 934.65 515.66, 932.57 513.19 C 930.50 510.73, 928.69 510.09, 925.90 509.16 C 923.12 508.23, 921.48 508.20, 918.65 508.54 C 915.81 508.87, 914.41 509.44, 911.72 510.83 C 909.02 512.22, 908.01 513.72, 905.16 515.51 C 902.32 517.30, 900.63 518.36, 897.48 519.76 C 894.32 521.16, 892.43 521.85, 889.41 522.51 C 886.39 523.17, 884.66 522.81, 882.39 523.06 C 880.12 523.31, 879.26 523.54, 878.07 523.74 C 876.87 523.94, 876.64 524.18, 876.43 524.08 C 876.22 523.97, 876.30 523.84, 877.01 523.20 C 877.71 522.57, 878.42 522.10, 879.96 520.89 C 881.50 519.67, 882.49 518.32, 884.71 517.12 C 886.92 515.91, 888.54 515.33, 891.03 514.86 C 893.51 514.38, 894.95 515.01, 897.12 514.75 C 899.30 514.49, 900.24 514.25, 901.90 513.57 C 903.56 512.89, 904.44 512.76, 905.43 511.36 C 906.42 509.96, 907.19 508.37, 906.83 506.58" style="stroke: black; fill: black;"/></svg>