<svg xmlns="http://www.w3.org/2000/svg" id="canvas" viewBox="390.038 404.324 730.955 144.295"><path d="M 489.49,410.68 C 488.38 409.03, 486.59 407.84, 483.13 407.46 C 479.66 407.08, 477.20 407.49, 472.16 408.77 C 467.12 410.05, 463.90 410.79, 457.94 413.85 C 451.99 416.91, 448.78 419.07, 442.39 424.07 C 436.01 429.08, 432.35 432.26, 426.04 438.87 C 419.72 445.48, 416.17 449.50, 410.83 457.12 C 405.48 464.73, 402.77 469.09, 399.32 476.93 C 395.87 484.77, 394.50 488.98, 393.58 496.31 C 392.66 503.64, 392.83 507.33, 394.72 513.57 C 396.60 519.81, 398.52 522.76, 402.99 527.51 C 407.46 532.26, 410.68 534.22, 417.09 537.32 C 423.49 540.42, 427.42 541.40, 435.01 543.01 C 442.60 544.63, 446.95 544.96, 455.02 545.38 C 463.09 545.81, 467.48 545.62, 475.35 545.13 C 483.23 544.64, 487.28 544.04, 494.40 542.94 C 501.52 541.84, 504.99 541.10, 510.97 539.61 C 516.96 538.12, 519.67 537.22, 524.31 535.50 C 528.96 533.77, 531.21 532.83, 534.20 530.99 C 537.18 529.15, 537.99 528.08, 539.24 526.31 C 540.49 524.54, 540.67 523.42, 540.44 522.15 C 540.21 520.88, 539.27 520.23, 538.10 519.97 C 536.93 519.71, 536.31 520.11, 534.60 520.86 C 532.89 521.61, 532.15 521.99, 529.55 523.72 C 526.96 525.44, 525.64 527.35, 521.63 529.48 C 517.62 531.60, 515.12 532.62, 509.51 534.36 C 503.91 536.09, 500.49 536.91, 493.60 538.14 C 486.71 539.37, 482.72 539.99, 475.05 540.52 C 467.39 541.04, 463.08 541.20, 455.27 540.75 C 447.47 540.30, 443.23 539.88, 436.04 538.28 C 428.84 536.69, 425.17 535.62, 419.29 532.77 C 413.41 529.92, 410.65 528.14, 406.65 524.02 C 402.66 519.89, 401.05 517.58, 399.32 512.15 C 397.59 506.71, 397.24 503.55, 398.01 496.84 C 398.78 490.13, 399.92 486.07, 403.15 478.60 C 406.39 471.13, 408.99 466.83, 414.19 459.49 C 419.39 452.14, 422.91 448.18, 429.14 441.89 C 435.38 435.60, 439.09 432.52, 445.36 428.03 C 451.64 423.54, 454.88 421.74, 460.53 419.44 C 466.18 417.15, 469.17 417.06, 473.62 416.55 C 478.08 416.04, 479.81 417.06, 482.81 416.89 C 485.82 416.73, 487.31 416.96, 488.64 415.72 C 489.98 414.47, 490.59 412.33, 489.49 410.68" style="stroke: black; fill: black;"/><path d="M 586.64,486.38 C 586.34 484.44, 585.38 482.65, 582.85 481.35 C 580.32 480.05, 578.05 479.61, 574.01 479.87 C 569.96 480.13, 567.21 480.66, 562.63 482.66 C 558.06 484.67, 555.52 486.41, 551.11 489.91 C 546.71 493.41, 544.22 495.73, 540.61 500.15 C 537.01 504.57, 535.03 507.19, 533.08 512.01 C 531.12 516.83, 530.32 519.71, 530.85 524.26 C 531.37 528.80, 532.62 531.43, 535.70 534.73 C 538.78 538.04, 541.42 539.20, 546.24 540.78 C 551.06 542.36, 554.19 542.57, 559.81 542.64 C 565.44 542.70, 568.74 542.24, 574.38 541.09 C 580.02 539.93, 583.03 539.04, 588.04 536.86 C 593.04 534.68, 595.59 533.33, 599.43 530.19 C 603.26 527.06, 605.12 525.13, 607.22 521.21 C 609.33 517.28, 609.96 514.78, 609.96 510.58 C 609.96 506.38, 609.13 503.89, 607.23 500.20 C 605.32 496.51, 603.51 494.80, 600.46 492.12 C 597.41 489.43, 595.32 488.10, 591.98 486.77 C 588.63 485.45, 586.45 485.38, 583.73 485.47 C 581.02 485.57, 579.96 486.15, 578.39 487.23 C 576.82 488.30, 576.26 489.61, 575.88 490.85 C 575.50 492.09, 575.90 493.09, 576.50 493.43 C 577.10 493.76, 578.41 492.53, 578.87 492.50 C 579.33 492.48, 578.63 492.70, 578.80 493.29 C 578.97 493.88, 578.93 494.73, 579.71 495.43 C 580.48 496.13, 581.03 496.28, 582.66 496.79 C 584.29 497.29, 585.62 497.22, 587.88 497.95 C 590.14 498.68, 591.77 499.00, 593.95 500.42 C 596.14 501.83, 597.38 502.93, 598.80 505.03 C 600.22 507.13, 600.80 508.40, 601.04 510.90 C 601.28 513.40, 601.27 514.80, 600.00 517.54 C 598.72 520.27, 597.63 521.97, 594.68 524.57 C 591.73 527.17, 589.57 528.58, 585.24 530.53 C 580.91 532.47, 578.09 533.33, 573.03 534.29 C 567.98 535.26, 564.85 535.51, 559.97 535.34 C 555.08 535.18, 552.35 534.69, 548.62 533.49 C 544.89 532.28, 543.36 531.33, 541.33 529.32 C 539.29 527.31, 538.73 526.33, 538.44 523.43 C 538.15 520.53, 538.34 518.53, 539.89 514.80 C 541.44 511.07, 543.03 508.53, 546.19 504.78 C 549.36 501.02, 551.81 498.78, 555.71 496.04 C 559.62 493.30, 562.03 492.12, 565.72 491.10 C 569.41 490.08, 571.35 490.79, 574.16 490.96 C 576.98 491.12, 577.77 491.92, 579.80 491.93 C 581.84 491.95, 582.98 492.13, 584.35 491.02 C 585.72 489.91, 586.94 488.31, 586.64 486.38" style="stroke: black; fill: black;"/><path d="M 633.76,486.22 C 632.23 487.23, 631.40 488.37, 630.98 490.88 C 630.57 493.40, 630.99 495.18, 631.67 498.80 C 632.35 502.42, 633.20 504.96, 634.40 508.96 C 635.60 512.97, 636.22 515.25, 637.65 518.82 C 639.08 522.40, 639.50 524.35, 641.55 526.84 C 643.59 529.33, 645.13 530.24, 647.88 531.27 C 650.63 532.30, 652.30 532.50, 655.28 532.00 C 658.25 531.51, 660.27 531.01, 662.76 528.79 C 665.25 526.57, 665.63 524.30, 667.71 520.88 C 669.79 517.47, 670.85 515.18, 673.17 511.73 C 675.49 508.28, 676.93 506.21, 679.29 503.63 C 681.65 501.04, 683.14 500.14, 684.96 498.81 C 686.77 497.47, 687.23 496.98, 688.37 496.95 C 689.51 496.93, 689.53 497.43, 690.68 498.68 C 691.83 499.93, 692.47 500.93, 694.12 503.20 C 695.77 505.46, 696.94 507.03, 698.93 509.99 C 700.92 512.94, 702.01 514.80, 704.08 517.97 C 706.16 521.14, 707.23 522.87, 709.31 525.82 C 711.39 528.77, 712.21 530.61, 714.46 532.72 C 716.71 534.82, 718.32 535.59, 720.56 536.34 C 722.80 537.08, 724.23 537.11, 725.67 536.44 C 727.12 535.78, 727.69 534.50, 727.80 533.01 C 727.90 531.51, 727.19 530.70, 726.20 528.97 C 725.22 527.24, 724.61 526.28, 722.88 524.37 C 721.16 522.47, 719.62 521.82, 717.58 519.43 C 715.53 517.05, 714.57 515.48, 712.66 512.45 C 710.75 509.43, 709.92 507.53, 708.03 504.29 C 706.14 501.05, 705.47 499.09, 703.22 496.25 C 700.97 493.40, 699.78 491.75, 696.79 490.07 C 693.80 488.38, 691.73 487.79, 688.27 487.81 C 684.81 487.84, 682.69 488.32, 679.47 490.19 C 676.25 492.07, 675.02 494.02, 672.17 497.18 C 669.33 500.34, 667.92 502.52, 665.23 505.99 C 662.54 509.45, 661.07 511.69, 658.73 514.52 C 656.38 517.35, 654.83 518.30, 653.52 520.14 C 652.20 521.98, 652.51 522.94, 652.15 523.70 C 651.80 524.46, 652.06 524.51, 651.73 523.93 C 651.41 523.35, 651.36 522.61, 650.54 520.81 C 649.71 519.02, 648.71 517.88, 647.61 514.95 C 646.51 512.02, 645.85 509.85, 645.04 506.18 C 644.23 502.51, 644.14 499.94, 643.55 496.62 C 642.96 493.29, 643.06 491.69, 642.07 489.54 C 641.08 487.38, 640.28 486.49, 638.62 485.83 C 636.96 485.16, 635.29 485.21, 633.76 486.22" style="stroke: black; fill: black;"/><path d="M 750.54,430.06 C 749.18 431.16, 748.08 432.11, 748.11 435.05 C 748.15 437.99, 749.38 440.00, 750.72 444.77 C 752.05 449.53, 753.02 452.79, 754.79 458.89 C 756.55 464.98, 757.64 468.80, 759.56 475.24 C 761.48 481.69, 762.56 485.16, 764.40 491.10 C 766.23 497.04, 767.18 499.85, 768.74 504.95 C 770.31 510.06, 771.11 512.41, 772.22 516.61 C 773.33 520.81, 773.37 523.10, 774.31 525.95 C 775.25 528.81, 775.87 529.60, 776.92 530.87 C 777.98 532.14, 778.81 532.05, 779.60 532.30 C 780.39 532.56, 780.44 532.07, 780.88 532.14 C 781.31 532.22, 781.25 532.77, 781.79 532.68 C 782.32 532.58, 782.96 532.57, 783.56 531.67 C 784.16 530.76, 784.81 529.95, 784.80 528.14 C 784.79 526.33, 784.63 525.42, 783.51 522.61 C 782.40 519.81, 781.01 518.06, 779.24 514.12 C 777.47 510.19, 776.50 507.90, 774.64 502.94 C 772.78 497.99, 771.80 495.22, 769.94 489.36 C 768.08 483.50, 767.01 480.06, 765.33 473.63 C 763.65 467.20, 762.78 463.35, 761.54 457.23 C 760.31 451.11, 759.79 447.78, 759.16 443.03 C 758.53 438.27, 759.24 436.14, 758.40 433.45 C 757.55 430.75, 756.51 430.23, 754.94 429.55 C 753.37 428.88, 751.91 428.96, 750.54 430.06" style="stroke: black; fill: black;"/><path d="M 735.84,504.34 C 737.13 505.39, 737.90 505.78, 740.38 505.43 C 742.86 505.09, 744.02 503.80, 748.25 502.63 C 752.48 501.46, 755.52 500.61, 761.52 499.58 C 767.53 498.55, 771.36 498.17, 778.28 497.48 C 785.20 496.79, 789.16 496.55, 796.13 496.14 C 803.09 495.73, 806.76 495.56, 813.12 495.44 C 819.47 495.32, 822.55 495.35, 827.88 495.53 C 833.22 495.70, 835.72 495.88, 839.78 496.32 C 843.84 496.76, 845.58 497.88, 848.18 497.74 C 850.77 497.60, 851.74 496.95, 852.75 495.64 C 853.75 494.33, 853.82 492.98, 853.21 491.20 C 852.59 489.42, 851.69 487.85, 849.66 486.74 C 847.62 485.63, 845.95 485.22, 843.04 485.64 C 840.13 486.06, 838.34 487.39, 835.10 488.84 C 831.85 490.29, 829.93 490.95, 826.81 492.88 C 823.69 494.81, 821.81 495.80, 819.48 498.48 C 817.16 501.16, 816.10 502.99, 815.18 506.29 C 814.27 509.58, 814.14 511.67, 814.92 514.96 C 815.69 518.24, 816.73 520.14, 819.07 522.71 C 821.40 525.28, 823.21 526.56, 826.61 527.80 C 830.01 529.04, 832.24 528.99, 836.07 528.91 C 839.90 528.83, 841.99 528.45, 845.75 527.40 C 849.52 526.36, 851.50 525.58, 854.91 523.68 C 858.31 521.78, 859.95 520.46, 862.79 517.89 C 865.63 515.33, 867.32 513.75, 869.09 510.85 C 870.87 507.95, 871.79 505.68, 871.68 503.39 C 871.58 501.11, 869.97 499.73, 868.56 499.43 C 867.16 499.12, 865.35 499.96, 864.65 501.88 C 863.96 503.79, 863.79 505.93, 865.08 509.00 C 866.36 512.06, 868.25 514.12, 871.09 517.20 C 873.93 520.28, 875.75 521.96, 879.29 524.42 C 882.82 526.87, 884.85 527.88, 888.78 529.49 C 892.72 531.09, 894.93 531.80, 898.96 532.45 C 903.00 533.09, 905.50 533.33, 908.95 532.72 C 912.40 532.12, 914.89 531.12, 916.20 529.42 C 917.51 527.73, 917.06 525.57, 915.51 524.26 C 913.96 522.95, 911.49 523.17, 908.46 522.89 C 905.43 522.60, 903.58 523.25, 900.36 522.84 C 897.13 522.43, 895.33 522.10, 892.33 520.85 C 889.33 519.61, 887.72 518.77, 885.37 516.63 C 883.03 514.48, 882.12 512.93, 880.60 510.13 C 879.07 507.34, 879.21 505.11, 877.74 502.66 C 876.26 500.21, 875.38 499.08, 873.22 497.88 C 871.07 496.67, 869.36 496.38, 866.97 496.63 C 864.59 496.88, 863.00 497.54, 861.30 499.14 C 859.60 500.74, 859.71 502.42, 858.49 504.63 C 857.27 506.84, 856.95 508.24, 855.21 510.18 C 853.46 512.13, 852.19 513.04, 849.77 514.34 C 847.35 515.65, 845.80 516.15, 843.11 516.70 C 840.41 517.25, 838.77 517.30, 836.30 517.10 C 833.82 516.91, 832.61 516.27, 830.74 515.71 C 828.87 515.15, 828.06 514.97, 826.93 514.29 C 825.79 513.62, 825.36 513.22, 825.07 512.34 C 824.77 511.46, 824.81 510.99, 825.44 509.91 C 826.08 508.82, 826.76 508.17, 828.23 506.92 C 829.70 505.67, 830.63 504.67, 832.80 503.66 C 834.97 502.65, 836.49 502.20, 839.07 501.87 C 841.66 501.53, 843.36 502.45, 845.72 502.00 C 848.08 501.56, 849.29 501.10, 850.86 499.65 C 852.44 498.20, 853.17 496.66, 853.59 494.76 C 854.02 492.87, 854.02 491.58, 853.00 490.18 C 851.97 488.78, 851.10 488.05, 848.48 487.76 C 845.86 487.47, 844.02 488.39, 839.89 488.72 C 835.76 489.04, 833.23 489.13, 827.84 489.38 C 822.45 489.62, 819.34 489.67, 812.94 489.95 C 806.54 490.24, 802.85 490.43, 795.83 490.79 C 788.81 491.14, 784.87 491.34, 777.84 491.72 C 770.82 492.09, 766.97 492.23, 760.70 492.66 C 754.44 493.08, 751.23 493.26, 746.53 493.85 C 741.83 494.43, 739.70 494.30, 737.19 495.57 C 734.68 496.85, 734.23 498.46, 733.96 500.21 C 733.69 501.97, 734.56 503.30, 735.84 504.34" style="stroke: black; fill: black;"/><path d="M 964.06,486.47 C 963.75 484.61, 962.96 482.99, 960.48 481.77 C 958.00 480.56, 955.49 479.78, 951.66 480.40 C 947.84 481.01, 945.32 482.36, 941.35 484.87 C 937.37 487.38, 935.22 489.27, 931.80 492.95 C 928.39 496.62, 926.39 498.88, 924.26 503.23 C 922.14 507.59, 921.01 510.25, 921.19 514.72 C 921.36 519.18, 922.29 521.97, 925.13 525.55 C 927.96 529.12, 930.42 530.50, 935.36 532.60 C 940.30 534.71, 943.51 535.31, 949.83 536.07 C 956.14 536.83, 959.94 536.86, 966.93 536.42 C 973.93 535.97, 977.79 535.37, 984.80 533.85 C 991.81 532.32, 995.51 531.30, 1001.97 528.79 C 1008.43 526.28, 1011.74 524.80, 1017.11 521.31 C 1022.48 517.81, 1024.96 515.76, 1028.81 511.32 C 1032.67 506.88, 1034.21 504.22, 1036.39 499.11 C 1038.57 494.00, 1039.11 490.99, 1039.69 485.77 C 1040.28 480.54, 1039.87 477.72, 1039.30 473.00 C 1038.73 468.28, 1038.56 465.59, 1036.85 462.17 C 1035.14 458.75, 1033.48 456.79, 1030.75 455.89 C 1028.03 454.99, 1025.21 455.67, 1023.22 457.65 C 1021.23 459.63, 1020.57 461.88, 1020.80 465.79 C 1021.04 469.71, 1022.48 472.16, 1024.39 477.24 C 1026.30 482.32, 1027.76 485.59, 1030.36 491.20 C 1032.96 496.81, 1034.51 499.91, 1037.37 505.29 C 1040.24 510.67, 1041.87 513.34, 1044.69 518.11 C 1047.50 522.87, 1049.04 525.10, 1051.46 529.11 C 1053.87 533.13, 1054.79 535.56, 1056.77 538.17 C 1058.76 540.78, 1059.80 541.47, 1061.39 542.17 C 1062.97 542.88, 1063.89 542.06, 1064.71 541.72 C 1065.54 541.38, 1065.50 540.59, 1065.51 540.49 C 1065.52 540.39, 1064.63 541.19, 1064.77 541.22 C 1064.91 541.25, 1065.71 541.42, 1066.21 540.63 C 1066.71 539.85, 1067.66 538.97, 1067.28 537.30 C 1066.91 535.64, 1066.30 534.79, 1064.34 532.31 C 1062.38 529.83, 1060.33 528.41, 1057.49 524.90 C 1054.64 521.39, 1053.03 519.25, 1050.12 514.75 C 1047.22 510.25, 1045.63 507.63, 1042.95 502.38 C 1040.28 497.13, 1038.84 494.05, 1036.77 488.52 C 1034.70 482.98, 1033.75 479.56, 1032.61 474.71 C 1031.47 469.86, 1031.85 467.26, 1031.05 464.27 C 1030.26 461.29, 1029.62 460.41, 1028.65 459.79 C 1027.69 459.18, 1026.38 459.90, 1026.23 461.19 C 1026.08 462.49, 1026.84 463.62, 1027.90 466.26 C 1028.96 468.90, 1030.56 470.62, 1031.53 474.41 C 1032.51 478.21, 1032.99 480.74, 1032.80 485.21 C 1032.60 489.68, 1032.24 492.29, 1030.56 496.76 C 1028.88 501.23, 1027.68 503.57, 1024.38 507.57 C 1021.09 511.57, 1018.97 513.49, 1014.10 516.76 C 1009.24 520.03, 1006.15 521.52, 1000.07 523.90 C 993.99 526.29, 990.39 527.31, 983.71 528.67 C 977.03 530.04, 973.26 530.53, 966.66 530.74 C 960.07 530.95, 956.41 530.68, 950.73 529.73 C 945.06 528.78, 942.18 527.80, 938.30 525.99 C 934.42 524.18, 933.10 522.93, 931.35 520.66 C 929.59 518.39, 929.42 517.34, 929.52 514.64 C 929.63 511.94, 930.15 510.26, 931.88 507.18 C 933.60 504.10, 935.29 501.92, 938.16 499.24 C 941.03 496.55, 943.19 495.11, 946.23 493.77 C 949.27 492.43, 950.98 492.78, 953.35 492.54 C 955.73 492.29, 956.36 492.84, 958.10 492.55 C 959.84 492.27, 960.85 492.33, 962.04 491.12 C 963.24 489.90, 964.37 488.34, 964.06 486.47" style="stroke: black; fill: black;"/><path d="M 1011.78,512.16 C 1013.10 513.13, 1013.76 513.37, 1016.48 512.94 C 1019.20 512.51, 1020.59 511.07, 1025.38 510.00 C 1030.16 508.94, 1033.67 508.31, 1040.39 507.63 C 1047.12 506.95, 1051.58 506.80, 1059.03 506.59 C 1066.47 506.38, 1070.67 506.40, 1077.60 506.58 C 1084.54 506.76, 1087.98 506.91, 1093.69 507.49 C 1099.39 508.07, 1102.17 508.91, 1106.12 509.47 C 1110.07 510.03, 1111.24 510.36, 1113.44 510.28 C 1115.64 510.20, 1116.25 509.84, 1117.11 509.06 C 1117.97 508.29, 1118.24 507.52, 1117.75 506.42 C 1117.26 505.32, 1116.79 504.41, 1114.63 503.56 C 1112.48 502.70, 1111.09 502.53, 1106.97 502.15 C 1102.86 501.76, 1099.92 501.83, 1094.07 501.66 C 1088.21 501.49, 1084.73 501.40, 1077.71 501.30 C 1070.69 501.19, 1066.50 501.14, 1058.95 501.13 C 1051.41 501.11, 1046.95 501.06, 1039.99 501.24 C 1033.04 501.41, 1029.46 501.58, 1024.19 502.01 C 1018.92 502.44, 1016.52 502.17, 1013.66 503.39 C 1010.80 504.61, 1010.27 506.34, 1009.90 508.09 C 1009.52 509.84, 1010.47 511.19, 1011.78 512.16" style="stroke: black; fill: black;"/></svg>