<svg xmlns="http://www.w3.org/2000/svg" id="canvas" viewBox="392.647 404.698 653.224 201.682"><path d="M 489.65,414.24 C 489.41 412.31, 488.45 410.39, 485.92 409.11 C 483.38 407.83, 481.12 407.47, 476.98 407.83 C 472.83 408.20, 470.24 408.76, 465.19 410.93 C 460.14 413.10, 457.49 414.68, 451.75 418.70 C 446.00 422.71, 442.67 425.26, 436.46 431.01 C 430.25 436.77, 426.56 440.33, 420.71 447.47 C 414.87 454.61, 411.70 458.91, 407.24 466.70 C 402.78 474.50, 400.71 478.83, 398.41 486.44 C 396.10 494.06, 395.44 497.97, 395.70 504.79 C 395.96 511.60, 396.88 515.03, 399.72 520.52 C 402.57 526.00, 404.96 528.49, 409.91 532.21 C 414.87 535.93, 418.17 537.24, 424.52 539.13 C 430.86 541.01, 434.63 541.44, 441.63 541.63 C 448.64 541.82, 452.56 541.38, 459.54 540.06 C 466.52 538.75, 470.23 537.60, 476.53 535.04 C 482.83 532.48, 485.99 530.81, 491.06 527.28 C 496.12 523.75, 498.45 521.60, 501.87 517.38 C 505.28 513.17, 506.60 510.71, 508.14 506.21 C 509.67 501.71, 509.98 499.13, 509.54 494.87 C 509.11 490.61, 508.23 488.35, 505.96 484.92 C 503.70 481.48, 501.75 479.92, 498.22 477.69 C 494.69 475.47, 492.37 474.78, 488.33 473.77 C 484.29 472.77, 482.01 472.66, 478.02 472.67 C 474.03 472.67, 471.65 472.43, 468.38 473.78 C 465.11 475.14, 463.44 476.67, 461.68 479.45 C 459.91 482.23, 459.21 484.36, 459.55 487.67 C 459.88 490.98, 460.68 493.33, 463.34 495.99 C 466.01 498.64, 468.50 499.17, 472.86 500.95 C 477.21 502.73, 479.83 503.45, 485.12 504.88 C 490.42 506.31, 493.56 506.96, 499.33 508.10 C 505.10 509.24, 508.26 509.69, 513.96 510.58 C 519.67 511.47, 522.64 511.86, 527.86 512.56 C 533.07 513.25, 535.70 513.63, 540.03 514.06 C 544.36 514.50, 546.29 515.02, 549.51 514.73 C 552.74 514.44, 554.86 513.89, 556.16 512.60 C 557.47 511.30, 557.36 509.48, 556.05 508.25 C 554.74 507.02, 552.72 506.82, 549.61 506.45 C 546.51 506.09, 544.73 506.53, 540.52 506.41 C 536.32 506.29, 533.71 506.29, 528.60 505.85 C 523.48 505.41, 520.52 505.07, 514.95 504.20 C 509.39 503.34, 506.27 502.84, 500.77 501.52 C 495.28 500.19, 492.22 499.36, 487.47 497.57 C 482.71 495.78, 480.31 494.56, 477.01 492.56 C 473.71 490.55, 472.76 488.90, 470.97 487.54 C 469.19 486.18, 468.59 486.20, 468.09 485.76 C 467.58 485.32, 467.65 485.52, 468.46 485.34 C 469.26 485.16, 470.12 485.27, 472.12 484.85 C 474.11 484.43, 475.62 483.50, 478.44 483.23 C 481.25 482.96, 483.20 482.97, 486.18 483.51 C 489.15 484.06, 490.84 484.62, 493.32 485.95 C 495.79 487.29, 496.95 488.18, 498.55 490.19 C 500.15 492.19, 500.81 493.21, 501.34 495.99 C 501.86 498.77, 502.07 500.59, 501.17 504.09 C 500.27 507.60, 499.52 509.80, 496.83 513.51 C 494.15 517.21, 492.19 519.32, 487.73 522.64 C 483.26 525.95, 480.32 527.64, 474.49 530.09 C 468.66 532.54, 465.11 533.66, 458.57 534.89 C 452.03 536.13, 448.29 536.48, 441.79 536.27 C 435.29 536.06, 431.80 535.55, 426.08 533.86 C 420.35 532.16, 417.52 530.96, 413.16 527.81 C 408.81 524.65, 406.84 522.74, 404.29 518.09 C 401.75 513.44, 400.77 510.65, 400.42 504.56 C 400.08 498.48, 400.48 494.84, 402.57 487.68 C 404.66 480.53, 406.57 476.27, 410.86 468.78 C 415.15 461.29, 418.26 457.06, 424.02 450.22 C 429.78 443.38, 433.49 439.91, 439.66 434.59 C 445.84 429.26, 449.29 426.87, 454.89 423.58 C 460.50 420.30, 463.22 419.25, 467.67 418.15 C 472.13 417.06, 474.16 417.88, 477.17 418.11 C 480.18 418.34, 480.75 419.18, 482.74 419.31 C 484.73 419.43, 485.73 419.76, 487.11 418.75 C 488.49 417.74, 489.89 416.17, 489.65 414.24" style="stroke: black; fill: black;"/><path d="M 608.34,486.57 C 608.23 484.66, 607.44 483.19, 605.31 481.65 C 603.17 480.11, 601.28 479.08, 597.65 478.87 C 594.02 478.66, 591.38 479.14, 587.15 480.61 C 582.93 482.08, 580.62 483.39, 576.52 486.21 C 572.42 489.02, 570.15 490.97, 566.65 494.68 C 563.15 498.40, 561.28 500.65, 559.03 504.79 C 556.77 508.93, 555.64 511.27, 555.38 515.38 C 555.12 519.49, 555.70 522.09, 557.74 525.35 C 559.78 528.60, 561.94 530.21, 565.58 531.66 C 569.22 533.12, 571.73 532.99, 575.94 532.61 C 580.15 532.23, 582.48 531.48, 586.64 529.77 C 590.80 528.05, 592.96 526.71, 596.73 524.04 C 600.50 521.37, 602.36 519.62, 605.50 516.44 C 608.63 513.26, 610.27 511.36, 612.41 508.15 C 614.55 504.95, 615.97 503.06, 616.19 500.41 C 616.41 497.76, 615.23 495.95, 613.51 494.92 C 611.80 493.89, 609.60 493.88, 607.62 495.25 C 605.65 496.63, 603.89 498.63, 603.64 501.79 C 603.40 504.96, 604.67 507.44, 606.40 511.09 C 608.13 514.74, 609.60 516.78, 612.28 520.04 C 614.97 523.29, 616.54 524.89, 619.83 527.36 C 623.11 529.83, 625.00 530.89, 628.73 532.37 C 632.46 533.85, 634.56 534.37, 638.48 534.76 C 642.40 535.15, 644.48 535.12, 648.31 534.33 C 652.14 533.54, 654.18 532.85, 657.61 530.79 C 661.04 528.73, 662.69 527.27, 665.46 524.04 C 668.24 520.82, 669.39 518.84, 671.49 514.67 C 673.59 510.50, 674.49 508.03, 675.97 503.20 C 677.44 498.36, 678.01 495.55, 678.87 490.50 C 679.73 485.44, 679.95 482.69, 680.27 477.92 C 680.59 473.15, 680.68 470.75, 680.48 466.64 C 680.27 462.53, 680.53 460.38, 679.24 457.37 C 677.95 454.36, 676.54 452.99, 674.01 451.60 C 671.49 450.21, 669.53 449.79, 666.61 450.43 C 663.69 451.08, 661.32 451.99, 659.41 454.82 C 657.49 457.66, 657.51 460.18, 657.03 464.63 C 656.55 469.07, 656.67 471.82, 657.00 477.03 C 657.33 482.25, 657.57 485.30, 658.68 490.68 C 659.79 496.06, 660.57 498.99, 662.56 503.94 C 664.55 508.88, 665.86 511.33, 668.65 515.41 C 671.44 519.49, 673.08 521.34, 676.51 524.35 C 679.94 527.36, 681.94 528.66, 685.80 530.45 C 689.67 532.25, 691.77 532.91, 695.83 533.34 C 699.90 533.76, 702.15 533.64, 706.13 532.58 C 710.11 531.53, 712.17 530.58, 715.73 528.06 C 719.30 525.54, 721.02 523.81, 723.96 520.00 C 726.91 516.19, 728.22 513.80, 730.47 509.03 C 732.73 504.25, 733.74 501.43, 735.24 496.12 C 736.75 490.82, 737.33 487.77, 737.99 482.50 C 738.64 477.22, 738.68 474.41, 738.52 469.74 C 738.35 465.07, 738.37 462.80, 737.15 459.14 C 735.92 455.49, 734.95 453.57, 732.37 451.47 C 729.80 449.37, 727.63 448.56, 724.29 448.63 C 720.95 448.70, 718.29 449.31, 715.66 451.82 C 713.03 454.33, 712.38 456.82, 711.13 461.18 C 709.88 465.54, 709.52 468.32, 709.40 473.60 C 709.29 478.89, 709.43 482.07, 710.55 487.61 C 711.67 493.14, 712.62 496.18, 714.99 501.26 C 717.35 506.33, 718.87 508.80, 722.35 512.98 C 725.84 517.15, 728.02 519.06, 732.41 522.15 C 736.80 525.23, 739.38 526.55, 744.31 528.40 C 749.24 530.25, 751.92 530.77, 757.04 531.41 C 762.17 532.05, 764.84 532.07, 769.93 531.59 C 775.01 531.12, 777.68 530.57, 782.47 529.03 C 787.26 527.49, 789.70 526.31, 793.89 523.90 C 798.09 521.48, 800.10 519.99, 803.43 516.96 C 806.75 513.93, 808.36 512.19, 810.52 508.73 C 812.68 505.27, 813.88 503.25, 814.25 499.65 C 814.62 496.05, 813.96 493.81, 812.37 490.74 C 810.79 487.67, 809.34 486.09, 806.32 484.29 C 803.31 482.49, 801.04 481.69, 797.31 481.75 C 793.58 481.81, 791.17 482.61, 787.69 484.59 C 784.22 486.58, 782.34 488.28, 779.96 491.66 C 777.58 495.04, 776.38 497.37, 775.80 501.51 C 775.21 505.64, 775.46 508.34, 777.05 512.35 C 778.64 516.36, 780.28 518.45, 783.75 521.55 C 787.22 524.66, 789.61 525.88, 794.41 527.89 C 799.21 529.90, 802.17 530.58, 807.75 531.59 C 813.34 532.60, 816.58 532.83, 822.34 532.93 C 828.09 533.04, 831.19 532.75, 836.53 532.11 C 841.87 531.46, 844.54 530.90, 849.03 529.69 C 853.53 528.48, 855.77 527.98, 859.00 526.06 C 862.24 524.14, 863.51 522.71, 865.19 520.10 C 866.88 517.49, 867.16 515.72, 867.44 513.02 C 867.72 510.32, 867.73 508.33, 866.60 506.60 C 865.47 504.88, 863.87 504.18, 861.81 504.39 C 859.76 504.60, 857.80 505.80, 856.32 507.63 C 854.84 509.46, 854.26 511.17, 854.41 513.53 C 854.56 515.89, 855.35 517.47, 857.06 519.44 C 858.77 521.41, 860.51 522.13, 862.97 523.38 C 865.42 524.62, 866.79 525.24, 869.34 525.64 C 871.88 526.04, 873.32 526.06, 875.69 525.39 C 878.07 524.71, 879.40 523.89, 881.22 522.26 C 883.03 520.62, 883.82 519.36, 884.77 517.21 C 885.72 515.06, 885.81 513.68, 885.95 511.51 C 886.08 509.33, 885.69 508.14, 885.43 506.34 C 885.18 504.53, 884.88 503.69, 884.68 502.48 C 884.48 501.28, 884.27 500.86, 884.43 500.30 C 884.59 499.75, 884.60 499.81, 885.49 499.72 C 886.38 499.64, 887.06 499.90, 888.89 499.89 C 890.73 499.88, 891.98 499.86, 894.66 499.68 C 897.33 499.50, 899.00 499.09, 902.26 498.99 C 905.51 498.89, 907.46 499.01, 910.92 499.20 C 914.38 499.38, 916.26 499.56, 919.55 499.92 C 922.84 500.28, 924.48 500.59, 927.39 500.99 C 930.30 501.39, 931.68 501.64, 934.09 501.93 C 936.49 502.22, 937.56 502.24, 939.41 502.45 C 941.26 502.67, 942.00 502.73, 943.33 503.02 C 944.67 503.30, 945.16 503.50, 946.08 503.88 C 946.99 504.27, 947.28 504.46, 947.90 504.93 C 948.52 505.41, 948.58 505.55, 949.17 506.27 C 949.75 506.99, 949.95 507.47, 950.82 508.52 C 951.69 509.57, 952.21 510.29, 953.53 511.52 C 954.85 512.75, 955.66 513.44, 957.42 514.67 C 959.18 515.90, 960.23 516.56, 962.31 517.66 C 964.39 518.77, 965.59 519.28, 967.81 520.20 C 970.02 521.12, 971.22 521.48, 973.38 522.27 C 975.54 523.06, 976.63 523.40, 978.60 524.15 C 980.56 524.91, 981.54 525.27, 983.21 526.03 C 984.87 526.79, 985.60 527.06, 986.93 527.97 C 988.26 528.88, 988.72 529.34, 989.86 530.59 C 991.01 531.85, 991.47 532.61, 992.64 534.25 C 993.80 535.90, 994.41 536.88, 995.70 538.81 C 996.99 540.75, 997.74 541.82, 999.10 543.94 C 1000.46 546.05, 1001.24 547.09, 1002.50 549.38 C 1003.76 551.67, 1004.43 552.88, 1005.39 555.37 C 1006.35 557.86, 1006.81 559.23, 1007.31 561.83 C 1007.80 564.44, 1007.99 565.79, 1007.86 568.39 C 1007.73 570.99, 1007.58 572.29, 1006.66 574.85 C 1005.75 577.41, 1005.18 578.74, 1003.27 581.18 C 1001.36 583.63, 1000.17 584.91, 997.10 587.08 C 994.02 589.24, 992.12 590.35, 987.90 592.02 C 983.68 593.69, 981.13 594.46, 976.00 595.44 C 970.86 596.42, 967.84 596.71, 962.24 596.91 C 956.64 597.10, 953.47 596.98, 947.99 596.39 C 942.51 595.81, 939.52 595.27, 934.84 593.97 C 930.17 592.67, 927.79 591.68, 924.59 589.89 C 921.40 588.10, 920.27 586.82, 918.85 585.02 C 917.42 583.23, 917.39 582.75, 917.45 580.90 C 917.52 579.05, 917.49 578.22, 919.18 575.76 C 920.87 573.30, 922.20 571.52, 925.91 568.62 C 929.61 565.73, 932.16 564.00, 937.71 561.28 C 943.26 558.56, 946.80 557.20, 953.68 555.03 C 960.56 552.87, 964.61 551.96, 972.11 550.45 C 979.60 548.95, 983.74 548.37, 991.15 547.51 C 998.56 546.65, 1002.46 546.42, 1009.15 546.14 C 1015.84 545.87, 1019.32 546.07, 1024.60 546.12 C 1029.87 546.18, 1032.06 546.68, 1035.53 546.41 C 1038.99 546.15, 1040.64 545.86, 1041.92 544.82 C 1043.19 543.78, 1043.19 542.25, 1041.91 541.22 C 1040.63 540.18, 1039.00 539.89, 1035.51 539.64 C 1032.03 539.40, 1029.81 539.73, 1024.47 539.99 C 1019.14 540.26, 1015.62 540.42, 1008.84 540.97 C 1002.06 541.51, 998.10 541.79, 990.57 542.74 C 983.04 543.68, 978.86 544.23, 971.18 545.68 C 963.50 547.12, 959.38 547.97, 952.18 549.97 C 944.98 551.97, 941.30 553.15, 935.19 555.68 C 929.08 558.21, 926.23 559.59, 921.63 562.61 C 917.02 565.63, 914.83 567.13, 912.18 570.77 C 909.53 574.40, 908.38 576.85, 908.37 580.78 C 908.36 584.71, 909.58 587.22, 912.13 590.40 C 914.68 593.57, 916.90 594.62, 921.11 596.64 C 925.32 598.67, 927.93 599.31, 933.18 600.53 C 938.42 601.76, 941.50 602.19, 947.34 602.75 C 953.19 603.32, 956.45 603.46, 962.41 603.34 C 968.37 603.23, 971.53 603.04, 977.14 602.20 C 982.75 601.36, 985.55 600.74, 990.45 599.14 C 995.36 597.55, 997.69 596.57, 1001.67 594.22 C 1005.66 591.86, 1007.51 590.45, 1010.39 587.36 C 1013.28 584.28, 1014.45 582.38, 1016.10 578.79 C 1017.75 575.21, 1018.16 573.15, 1018.64 569.43 C 1019.12 565.71, 1018.92 563.75, 1018.51 560.19 C 1018.09 556.63, 1017.54 554.88, 1016.58 551.63 C 1015.62 548.38, 1014.98 546.82, 1013.71 543.92 C 1012.45 541.02, 1011.72 539.66, 1010.25 537.14 C 1008.77 534.61, 1007.95 533.44, 1006.36 531.29 C 1004.77 529.14, 1003.94 528.20, 1002.30 526.39 C 1000.65 524.58, 999.86 523.81, 998.14 522.24 C 996.42 520.66, 995.58 519.89, 993.70 518.51 C 991.83 517.12, 990.80 516.48, 988.76 515.32 C 986.73 514.16, 985.61 513.70, 983.52 512.71 C 981.42 511.71, 980.34 511.29, 978.27 510.35 C 976.20 509.41, 975.11 508.90, 973.17 508.00 C 971.23 507.09, 970.21 506.69, 968.56 505.82 C 966.90 504.96, 966.23 504.56, 964.91 503.69 C 963.59 502.82, 963.10 502.32, 961.97 501.49 C 960.84 500.65, 960.35 500.31, 959.26 499.52 C 958.17 498.73, 957.73 498.33, 956.52 497.54 C 955.31 496.75, 954.60 496.22, 953.21 495.56 C 951.83 494.90, 951.06 494.73, 949.60 494.25 C 948.14 493.76, 947.53 493.62, 945.90 493.14 C 944.27 492.65, 943.48 492.35, 941.45 491.82 C 939.41 491.29, 938.30 490.91, 935.73 490.49 C 933.17 490.07, 931.66 489.95, 928.61 489.71 C 925.57 489.46, 923.89 489.53, 920.52 489.28 C 917.15 489.03, 915.32 488.84, 911.78 488.47 C 908.23 488.10, 906.27 487.83, 902.80 487.42 C 899.34 487.00, 897.62 486.48, 894.44 486.40 C 891.26 486.31, 889.71 486.29, 886.90 487.00 C 884.09 487.71, 882.64 488.40, 880.40 489.94 C 878.16 491.49, 877.22 492.65, 875.71 494.73 C 874.19 496.80, 873.65 498.02, 872.81 500.33 C 871.97 502.63, 871.80 504.01, 871.52 506.24 C 871.24 508.47, 871.27 509.69, 871.40 511.48 C 871.52 513.26, 871.72 514.11, 872.14 515.17 C 872.57 516.23, 873.08 516.50, 873.53 516.78 C 873.99 517.05, 874.33 516.90, 874.40 516.56 C 874.47 516.22, 874.32 515.97, 873.89 515.09 C 873.45 514.20, 872.97 513.55, 872.22 512.15 C 871.47 510.74, 871.24 509.36, 870.13 508.07 C 869.01 506.79, 868.24 506.11, 866.64 505.73 C 865.05 505.36, 863.92 505.58, 862.15 506.22 C 860.38 506.86, 858.95 507.91, 857.80 508.92 C 856.65 509.93, 856.38 510.46, 856.40 511.25 C 856.42 512.05, 857.68 512.14, 857.91 512.90 C 858.15 513.65, 858.35 513.95, 857.58 515.01 C 856.82 516.08, 856.28 516.74, 854.10 518.20 C 851.92 519.67, 850.39 520.93, 846.69 522.33 C 842.98 523.74, 840.41 524.46, 835.57 525.23 C 830.73 525.99, 827.77 526.28, 822.48 526.16 C 817.19 526.03, 814.10 525.70, 809.12 524.63 C 804.15 523.55, 801.47 522.66, 797.60 520.78 C 793.72 518.90, 792.03 517.57, 789.74 515.22 C 787.45 512.88, 786.87 511.42, 786.15 509.05 C 785.44 506.69, 785.61 505.49, 786.16 503.40 C 786.72 501.30, 787.46 500.18, 788.93 498.56 C 790.40 496.94, 791.67 496.19, 793.51 495.30 C 795.34 494.40, 796.47 494.36, 798.11 494.07 C 799.74 493.79, 800.55 493.66, 801.68 493.87 C 802.80 494.08, 803.30 494.21, 803.73 495.12 C 804.17 496.03, 804.12 496.62, 803.86 498.42 C 803.59 500.21, 803.63 501.57, 802.38 504.09 C 801.13 506.60, 800.10 508.36, 797.61 511.00 C 795.12 513.65, 793.42 515.10, 789.93 517.31 C 786.44 519.52, 784.29 520.63, 780.15 522.07 C 776.01 523.50, 773.68 524.02, 769.22 524.50 C 764.77 524.97, 762.38 524.96, 757.88 524.44 C 753.38 523.93, 751.03 523.49, 746.71 521.92 C 742.39 520.35, 740.12 519.24, 736.27 516.59 C 732.43 513.95, 730.50 512.33, 727.49 508.70 C 724.47 505.07, 723.14 502.92, 721.19 498.45 C 719.25 493.98, 718.45 491.20, 717.76 486.35 C 717.07 481.50, 717.18 478.58, 717.74 474.19 C 718.31 469.80, 719.34 467.42, 720.59 464.40 C 721.85 461.38, 723.15 460.62, 724.03 459.11 C 724.90 457.60, 724.54 457.09, 724.96 456.85 C 725.37 456.61, 725.42 456.86, 726.11 457.93 C 726.80 458.99, 727.51 459.70, 728.42 462.18 C 729.33 464.66, 730.19 466.43, 730.66 470.33 C 731.14 474.24, 731.26 476.94, 730.80 481.70 C 730.35 486.47, 729.80 489.35, 728.38 494.14 C 726.97 498.94, 725.89 501.56, 723.74 505.70 C 721.59 509.85, 720.23 511.85, 717.64 514.86 C 715.05 517.87, 713.55 518.98, 710.79 520.75 C 708.02 522.52, 706.65 522.98, 703.82 523.69 C 701.00 524.40, 699.58 524.52, 696.66 524.31 C 693.73 524.10, 692.22 523.84, 689.20 522.64 C 686.18 521.44, 684.45 520.61, 681.54 518.33 C 678.63 516.04, 677.11 514.61, 674.63 511.20 C 672.16 507.80, 670.91 505.66, 669.18 501.29 C 667.45 496.93, 666.74 494.22, 666.00 489.36 C 665.26 484.50, 665.22 481.55, 665.48 476.98 C 665.75 472.40, 666.39 469.82, 667.31 466.48 C 668.24 463.14, 669.64 462.12, 670.11 460.29 C 670.57 458.45, 669.88 457.87, 669.66 457.31 C 669.45 456.75, 669.06 456.78, 669.03 457.50 C 669.00 458.22, 668.96 458.89, 669.49 460.90 C 670.02 462.92, 671.08 464.24, 671.66 467.58 C 672.25 470.91, 672.47 473.26, 672.41 477.59 C 672.35 481.92, 672.15 484.59, 671.37 489.23 C 670.59 493.87, 669.96 496.50, 668.50 500.79 C 667.04 505.08, 666.02 507.27, 664.06 510.69 C 662.10 514.11, 660.94 515.56, 658.68 517.89 C 656.42 520.21, 655.23 521.00, 652.76 522.31 C 650.30 523.63, 649.02 523.98, 646.36 524.47 C 643.69 524.96, 642.25 525.03, 639.44 524.78 C 636.64 524.52, 635.04 524.22, 632.35 523.17 C 629.65 522.12, 628.21 521.38, 625.96 519.52 C 623.72 517.66, 622.50 516.42, 621.12 513.86 C 619.74 511.30, 619.53 509.44, 619.05 506.71 C 618.56 503.97, 619.51 502.31, 618.70 500.18 C 617.89 498.05, 616.69 497.15, 614.99 496.07 C 613.28 494.99, 611.96 494.63, 610.19 494.78 C 608.43 494.93, 607.47 495.21, 606.16 496.82 C 604.86 498.43, 605.12 500.15, 603.67 502.85 C 602.22 505.55, 601.31 507.54, 598.91 510.33 C 596.51 513.11, 594.81 514.64, 591.68 516.77 C 588.55 518.90, 586.58 519.84, 583.27 520.98 C 579.97 522.12, 578.02 522.31, 575.17 522.48 C 572.31 522.64, 570.91 522.26, 569.00 521.79 C 567.09 521.32, 566.49 521.27, 565.61 520.12 C 564.72 518.97, 564.38 518.30, 564.57 516.04 C 564.77 513.78, 564.96 511.95, 566.58 508.82 C 568.20 505.70, 569.74 503.46, 572.68 500.42 C 575.61 497.39, 577.83 495.60, 581.24 493.64 C 584.66 491.68, 586.68 491.04, 589.75 490.62 C 592.82 490.19, 594.24 491.21, 596.57 491.51 C 598.91 491.81, 599.58 492.18, 601.44 492.11 C 603.30 492.05, 604.47 492.30, 605.85 491.19 C 607.23 490.08, 608.44 488.48, 608.34 486.57" style="stroke: black; fill: black;"/></svg>