<svg xmlns="http://www.w3.org/2000/svg" id="canvas" viewBox="583.139 398.284 444.585 171.763"><path d="M 587.03,402.56 C 585.94 404.00, 586.08 405.36, 586.27 409.20 C 586.45 413.05, 587.18 415.55, 587.95 421.78 C 588.72 428.01, 589.34 432.24, 590.11 440.36 C 590.88 448.49, 591.23 453.40, 591.81 462.40 C 592.39 471.39, 592.59 476.44, 593.01 485.35 C 593.43 494.26, 593.52 498.79, 593.90 506.96 C 594.28 515.13, 594.53 519.17, 594.90 526.19 C 595.26 533.21, 595.42 536.45, 595.72 542.06 C 596.03 547.66, 596.16 550.14, 596.41 554.21 C 596.66 558.28, 596.30 560.02, 596.97 562.41 C 597.64 564.80, 598.78 565.24, 599.76 566.17 C 600.75 567.09, 601.12 566.98, 601.88 567.04 C 602.64 567.09, 602.96 566.87, 603.55 566.44 C 604.14 566.02, 604.35 566.05, 604.81 564.90 C 605.28 563.76, 606.10 563.07, 605.87 560.72 C 605.64 558.37, 604.56 557.00, 603.66 553.15 C 602.75 549.31, 602.15 546.95, 601.34 541.49 C 600.53 536.03, 600.25 532.80, 599.61 525.85 C 598.97 518.90, 598.64 514.87, 598.14 506.73 C 597.65 498.60, 597.52 494.08, 597.14 485.16 C 596.75 476.25, 596.58 471.20, 596.21 462.16 C 595.84 453.13, 595.66 448.19, 595.30 440.00 C 594.94 431.82, 594.67 427.55, 594.41 421.25 C 594.15 414.94, 594.53 412.32, 593.99 408.48 C 593.45 404.63, 593.11 403.21, 591.72 402.02 C 590.33 400.84, 588.12 401.12, 587.03 402.56" style="stroke: black; fill: black;"/><path d="M 634.09,440.06 C 632.98 441.35, 632.52 442.29, 632.89 445.41 C 633.26 448.52, 634.46 450.54, 635.94 455.63 C 637.41 460.72, 638.49 464.23, 640.25 470.86 C 642.02 477.49, 643.01 481.63, 644.78 488.77 C 646.56 495.90, 647.50 499.80, 649.13 506.54 C 650.76 513.27, 651.61 516.57, 652.92 522.43 C 654.24 528.30, 654.86 531.04, 655.73 535.87 C 656.60 540.71, 656.91 542.94, 657.26 546.62 C 657.61 550.29, 657.01 551.97, 657.48 554.24 C 657.95 556.51, 658.91 556.93, 659.63 557.97 C 660.34 559.00, 660.32 559.00, 661.04 559.41 C 661.77 559.82, 662.33 560.28, 663.24 560.03 C 664.15 559.78, 664.79 559.54, 665.59 558.17 C 666.38 556.79, 667.28 555.76, 667.21 553.15 C 667.14 550.54, 666.28 548.87, 665.23 545.12 C 664.19 541.37, 663.37 539.21, 661.99 534.41 C 660.61 529.61, 659.88 526.93, 658.33 521.11 C 656.77 515.28, 655.87 512.01, 654.22 505.30 C 652.57 498.58, 651.64 494.70, 650.08 487.53 C 648.52 480.36, 647.73 476.17, 646.44 469.44 C 645.15 462.71, 644.48 459.12, 643.62 453.89 C 642.76 448.66, 643.18 446.27, 642.14 443.28 C 641.10 440.28, 640.04 439.58, 638.43 438.93 C 636.82 438.29, 635.19 438.76, 634.09 440.06" style="stroke: black; fill: black;"/><path d="M 589.08,519.48 C 590.31 520.65, 591.19 521.30, 593.89 521.04 C 596.60 520.78, 598.04 519.40, 602.63 518.18 C 607.22 516.96, 610.39 516.19, 616.84 514.95 C 623.28 513.72, 627.46 513.17, 634.85 512.02 C 642.24 510.86, 646.39 510.25, 653.80 509.17 C 661.21 508.09, 665.13 507.52, 671.91 506.63 C 678.68 505.74, 682.04 505.27, 687.68 504.73 C 693.31 504.18, 696.03 504.10, 700.07 503.89 C 704.11 503.69, 705.84 504.23, 707.88 503.69 C 709.92 503.15, 710.27 502.18, 710.26 501.19 C 710.25 500.19, 709.44 499.16, 707.83 498.71 C 706.22 498.27, 704.46 497.84, 702.20 498.96 C 699.94 500.08, 698.67 501.65, 696.54 504.31 C 694.41 506.97, 693.34 508.90, 691.56 512.25 C 689.78 515.61, 688.36 517.40, 687.64 521.07 C 686.93 524.74, 686.96 527.02, 687.98 530.60 C 689.00 534.17, 689.98 536.36, 692.74 538.95 C 695.51 541.53, 697.79 542.39, 701.79 543.53 C 705.79 544.66, 708.20 544.67, 712.74 544.61 C 717.29 544.56, 719.86 544.22, 724.52 543.26 C 729.17 542.30, 731.70 541.58, 736.02 539.83 C 740.34 538.07, 742.59 536.99, 746.12 534.47 C 749.66 531.95, 751.49 530.57, 753.70 527.24 C 755.91 523.91, 756.98 521.67, 757.19 517.82 C 757.40 513.97, 756.74 511.38, 754.73 507.99 C 752.72 504.60, 750.70 503.06, 747.13 500.88 C 743.56 498.71, 741.13 498.02, 736.89 497.11 C 732.65 496.19, 730.11 496.01, 725.96 496.29 C 721.80 496.56, 718.98 496.75, 716.10 498.47 C 713.22 500.18, 711.91 502.79, 711.54 504.85 C 711.17 506.90, 712.56 508.11, 714.23 508.76 C 715.91 509.41, 717.43 508.51, 719.91 508.10 C 722.39 507.69, 723.67 506.92, 726.64 506.72 C 729.61 506.53, 731.74 506.50, 734.74 507.13 C 737.75 507.76, 739.49 508.57, 741.67 509.88 C 743.85 511.19, 744.59 512.17, 745.65 513.68 C 746.70 515.19, 746.96 515.75, 746.94 517.41 C 746.93 519.07, 746.80 520.00, 745.58 521.98 C 744.35 523.96, 743.38 525.32, 740.82 527.31 C 738.27 529.31, 736.37 530.46, 732.79 531.94 C 729.21 533.43, 726.89 534.07, 722.93 534.72 C 718.96 535.37, 716.55 535.43, 712.95 535.19 C 709.34 534.96, 707.45 534.47, 704.89 533.56 C 702.34 532.66, 701.53 531.78, 700.18 530.67 C 698.83 529.56, 698.36 529.31, 698.15 528.03 C 697.94 526.74, 698.35 526.04, 699.14 524.23 C 699.93 522.42, 700.46 520.99, 702.10 518.99 C 703.74 516.98, 705.36 516.05, 707.35 514.20 C 709.35 512.34, 710.85 511.82, 712.10 509.71 C 713.35 507.60, 713.61 505.98, 713.61 503.66 C 713.60 501.33, 713.30 499.80, 712.07 498.09 C 710.84 496.38, 710.03 495.42, 707.46 495.10 C 704.88 494.79, 703.31 495.75, 699.19 496.51 C 695.07 497.28, 692.48 497.92, 686.87 498.92 C 681.27 499.93, 677.93 500.48, 671.18 501.53 C 664.42 502.59, 660.51 503.18, 653.10 504.20 C 645.69 505.23, 641.56 505.79, 634.12 506.64 C 626.68 507.49, 622.50 507.82, 615.90 508.46 C 609.30 509.11, 606.02 509.38, 601.13 509.88 C 596.23 510.38, 594.10 509.89, 591.42 510.95 C 588.74 512.01, 588.20 513.48, 587.73 515.18 C 587.26 516.89, 587.85 518.31, 589.08 519.48" style="stroke: black; fill: black;"/><path d="M 779.93,501.36 C 778.51 502.50, 777.92 503.69, 777.67 506.10 C 777.43 508.52, 777.80 510.18, 778.68 513.44 C 779.56 516.69, 780.75 518.84, 782.08 522.38 C 783.41 525.91, 783.86 528.07, 785.32 531.12 C 786.78 534.17, 787.40 535.76, 789.39 537.65 C 791.38 539.54, 792.76 540.17, 795.26 540.57 C 797.77 540.97, 799.46 540.78, 801.91 539.64 C 804.36 538.50, 805.98 537.48, 807.49 534.89 C 809.00 532.29, 808.61 530.14, 809.47 526.68 C 810.32 523.21, 810.65 520.91, 811.78 517.56 C 812.91 514.21, 814.02 512.41, 815.10 509.94 C 816.19 507.47, 816.65 506.44, 817.20 505.21 C 817.75 503.98, 817.60 503.65, 817.87 503.80 C 818.14 503.96, 817.91 504.61, 818.54 506.00 C 819.16 507.38, 819.59 508.58, 820.99 510.75 C 822.39 512.91, 823.77 514.20, 825.53 516.80 C 827.28 519.40, 828.03 521.14, 829.77 523.74 C 831.50 526.35, 832.19 527.81, 834.19 529.82 C 836.20 531.84, 837.31 532.79, 839.80 533.83 C 842.28 534.87, 843.86 535.19, 846.60 535.01 C 849.35 534.83, 851.01 534.43, 853.52 532.92 C 856.03 531.42, 857.16 530.09, 859.15 527.47 C 861.14 524.85, 861.68 522.72, 863.48 519.81 C 865.28 516.91, 866.35 515.24, 868.16 512.93 C 869.96 510.61, 871.19 509.69, 872.49 508.24 C 873.79 506.80, 873.90 505.99, 874.65 505.71 C 875.39 505.43, 875.39 505.80, 876.21 506.83 C 877.03 507.86, 877.25 508.93, 878.75 510.85 C 880.24 512.77, 881.51 513.92, 883.69 516.43 C 885.87 518.94, 887.16 520.67, 889.63 523.42 C 892.11 526.17, 893.37 527.71, 896.08 530.18 C 898.78 532.64, 900.12 533.91, 903.14 535.76 C 906.16 537.61, 907.82 538.47, 911.16 539.41 C 914.50 540.35, 916.37 540.62, 919.84 540.47 C 923.31 540.32, 925.15 539.87, 928.51 538.66 C 931.87 537.45, 933.49 536.46, 936.64 534.40 C 939.78 532.34, 941.33 531.06, 944.25 528.37 C 947.17 525.68, 948.69 524.03, 951.25 520.97 C 953.81 517.91, 955.20 516.29, 957.06 513.08 C 958.92 509.87, 959.99 508.18, 960.55 504.93 C 961.11 501.68, 960.96 499.74, 959.87 496.83 C 958.78 493.91, 957.67 492.20, 955.10 490.33 C 952.52 488.47, 950.40 487.58, 946.98 487.48 C 943.55 487.38, 941.33 488.04, 937.96 489.83 C 934.59 491.63, 932.82 493.28, 930.11 496.46 C 927.40 499.64, 925.81 501.70, 924.41 505.74 C 923.00 509.78, 922.43 512.44, 923.11 516.65 C 923.79 520.86, 924.84 523.24, 927.82 526.80 C 930.79 530.36, 933.09 531.86, 937.98 534.45 C 942.87 537.05, 946.06 538.04, 952.27 539.78 C 958.48 541.52, 962.22 542.09, 969.05 543.16 C 975.87 544.23, 979.81 544.55, 986.40 545.14 C 992.99 545.73, 996.47 545.81, 1002.01 546.12 C 1007.55 546.44, 1010.25 546.80, 1014.11 546.71 C 1017.98 546.63, 1019.28 546.38, 1021.34 545.69 C 1023.40 545.00, 1023.85 544.27, 1024.40 543.25 C 1024.94 542.23, 1024.79 541.46, 1024.07 540.60 C 1023.34 539.75, 1022.83 539.31, 1020.79 538.96 C 1018.74 538.60, 1017.58 538.66, 1013.85 538.83 C 1010.12 539.00, 1007.52 539.67, 1002.12 539.80 C 996.72 539.92, 993.29 539.91, 986.86 539.45 C 980.44 538.98, 976.54 538.62, 969.99 537.47 C 963.44 536.33, 959.79 535.59, 954.11 533.72 C 948.42 531.85, 945.51 530.56, 941.56 528.14 C 937.61 525.73, 936.18 524.14, 934.38 521.63 C 932.58 519.12, 932.59 517.99, 932.54 515.60 C 932.48 513.21, 932.94 511.95, 934.11 509.70 C 935.27 507.45, 936.41 506.07, 938.38 504.36 C 940.34 502.65, 941.99 502.15, 943.92 501.15 C 945.85 500.16, 946.76 499.89, 948.04 499.37 C 949.31 498.85, 949.70 498.58, 950.27 498.56 C 950.85 498.54, 951.00 498.53, 950.91 499.28 C 950.82 500.02, 950.49 500.59, 949.83 502.30 C 949.18 504.00, 948.92 505.36, 947.62 507.80 C 946.32 510.24, 945.38 511.92, 943.33 514.51 C 941.29 517.10, 939.87 518.59, 937.40 520.74 C 934.93 522.90, 933.50 523.84, 930.99 525.28 C 928.49 526.72, 927.20 527.22, 924.87 527.94 C 922.54 528.66, 921.50 528.79, 919.33 528.88 C 917.17 528.98, 916.18 528.92, 914.05 528.42 C 911.92 527.92, 910.84 527.61, 908.68 526.39 C 906.53 525.18, 905.43 524.36, 903.28 522.36 C 901.14 520.36, 900.00 519.01, 897.95 516.39 C 895.89 513.77, 894.94 512.09, 893.00 509.26 C 891.05 506.43, 890.57 504.54, 888.24 502.24 C 885.91 499.94, 884.32 498.87, 881.33 497.75 C 878.34 496.63, 876.44 496.32, 873.27 496.63 C 870.10 496.94, 868.30 497.53, 865.49 499.30 C 862.68 501.08, 861.59 502.79, 859.22 505.51 C 856.84 508.23, 855.81 510.12, 853.62 512.90 C 851.44 515.68, 849.92 517.13, 848.28 519.40 C 846.64 521.67, 846.08 522.81, 845.43 524.26 C 844.77 525.71, 845.12 526.28, 844.99 526.65 C 844.86 527.02, 845.09 526.89, 844.77 526.12 C 844.45 525.35, 844.29 524.57, 843.40 522.79 C 842.50 521.01, 841.75 519.75, 840.30 517.22 C 838.86 514.69, 837.87 513.06, 836.17 510.14 C 834.48 507.23, 833.96 505.22, 831.83 502.66 C 829.71 500.10, 828.35 498.72, 825.54 497.34 C 822.74 495.95, 820.85 495.56, 817.83 495.74 C 814.81 495.91, 813.02 496.43, 810.45 498.21 C 807.89 499.99, 806.84 501.55, 805.00 504.63 C 803.17 507.70, 802.78 509.97, 801.28 513.59 C 799.77 517.21, 798.83 519.46, 797.47 522.71 C 796.10 525.97, 794.84 527.56, 794.47 529.88 C 794.09 532.19, 794.95 533.28, 795.58 534.30 C 796.21 535.31, 797.09 535.38, 797.62 534.95 C 798.15 534.52, 798.48 533.85, 798.24 532.16 C 798.00 530.46, 797.40 529.21, 796.44 526.47 C 795.48 523.73, 794.49 521.80, 793.44 518.45 C 792.38 515.10, 792.14 512.73, 791.17 509.74 C 790.20 506.74, 789.86 505.34, 788.58 503.47 C 787.30 501.60, 786.49 500.81, 784.76 500.39 C 783.03 499.97, 781.34 500.22, 779.93 501.36" style="stroke: black; fill: black;"/></svg>