<svg xmlns="http://www.w3.org/2000/svg" id="canvas" viewBox="421.465 422.829 684.617 131.804"><path d="M 499.86,425.91 C 498.20 426.22, 496.75 426.55, 495.64 428.92 C 494.54 431.29, 494.76 433.28, 494.33 437.75 C 493.91 442.21, 493.86 445.19, 493.51 451.24 C 493.16 457.28, 492.95 461.12, 492.60 467.98 C 492.26 474.85, 492.02 478.72, 491.78 485.56 C 491.54 492.41, 491.45 495.95, 491.41 502.22 C 491.37 508.50, 491.46 511.56, 491.58 516.95 C 491.69 522.34, 491.90 524.80, 491.99 529.16 C 492.08 533.53, 491.93 535.52, 492.03 538.77 C 492.13 542.01, 492.06 543.43, 492.48 545.37 C 492.90 547.30, 493.37 547.87, 494.14 548.44 C 494.92 549.01, 495.85 548.35, 496.34 548.23 C 496.83 548.11, 496.89 547.33, 496.61 547.84 C 496.33 548.35, 494.83 550.04, 494.95 550.77 C 495.07 551.51, 496.02 551.82, 497.21 551.52 C 498.40 551.21, 499.87 550.65, 500.88 549.26 C 501.89 547.86, 502.19 546.85, 502.26 544.55 C 502.33 542.25, 501.83 540.98, 501.23 537.77 C 500.62 534.56, 499.94 532.73, 499.24 528.50 C 498.54 524.27, 498.18 521.88, 497.73 516.62 C 497.29 511.36, 497.09 508.37, 497.00 502.20 C 496.91 496.03, 496.97 492.54, 497.28 485.79 C 497.59 479.03, 497.87 475.18, 498.56 468.44 C 499.24 461.69, 499.70 457.89, 500.71 452.06 C 501.73 446.23, 502.64 443.42, 503.63 439.28 C 504.63 435.15, 505.62 433.77, 505.68 431.38 C 505.75 429.00, 505.11 428.44, 503.94 427.34 C 502.78 426.25, 501.52 425.59, 499.86 425.91" style="stroke: black; fill: black;"/><path d="M 427.34,467.89 C 428.68 468.75, 429.30 468.72, 431.18 468.42 C 433.07 468.12, 433.74 467.59, 436.78 466.40 C 439.81 465.22, 441.64 463.78, 446.34 462.49 C 451.04 461.21, 454.19 460.75, 460.27 459.98 C 466.35 459.20, 469.97 458.94, 476.74 458.63 C 483.52 458.32, 487.25 458.27, 494.15 458.42 C 501.05 458.58, 504.69 458.80, 511.22 459.41 C 517.76 460.02, 521.02 460.49, 526.82 461.47 C 532.62 462.45, 535.39 463.05, 540.22 464.30 C 545.04 465.55, 547.16 466.31, 550.95 467.72 C 554.73 469.12, 556.07 470.14, 559.14 471.32 C 562.21 472.50, 564.37 474.02, 566.30 473.62 C 568.23 473.22, 569.52 471.24, 568.77 469.31 C 568.03 467.38, 565.71 465.69, 562.60 463.96 C 559.49 462.24, 557.42 461.85, 553.22 460.68 C 549.02 459.50, 546.71 459.06, 541.60 458.10 C 536.49 457.13, 533.65 456.65, 527.67 455.85 C 521.69 455.05, 518.36 454.65, 511.69 454.11 C 505.01 453.57, 501.31 453.36, 494.29 453.14 C 487.27 452.92, 483.50 452.93, 476.59 453.00 C 469.67 453.07, 466.06 453.21, 459.72 453.49 C 453.39 453.76, 450.16 453.89, 444.90 454.37 C 439.63 454.86, 437.10 454.95, 433.40 455.93 C 429.69 456.92, 428.15 457.68, 426.38 459.31 C 424.60 460.95, 424.32 462.39, 424.52 464.11 C 424.71 465.82, 426.01 467.03, 427.34 467.89" style="stroke: black; fill: black;"/><path d="M 590.15,503.53 C 588.71 505.06, 588.47 507.30, 588.32 510.84 C 588.18 514.38, 588.79 516.99, 589.42 521.24 C 590.06 525.49, 590.51 528.19, 591.50 532.09 C 592.49 535.99, 592.76 538.12, 594.36 540.74 C 595.97 543.37, 597.70 544.17, 599.52 545.23 C 601.35 546.29, 602.24 546.34, 603.50 546.04 C 604.75 545.74, 605.35 544.84, 605.78 543.73 C 606.20 542.61, 605.86 542.06, 605.60 540.46 C 605.35 538.86, 605.29 537.98, 604.49 535.73 C 603.69 533.49, 602.60 532.47, 601.59 529.25 C 600.58 526.04, 600.08 523.51, 599.42 519.64 C 598.75 515.78, 599.05 513.22, 598.27 509.93 C 597.50 506.64, 597.16 504.47, 595.54 503.19 C 593.91 501.91, 591.60 502.00, 590.15 503.53" style="stroke: black; fill: black;"/><path d="M 590.69,450.13 C 592.39 449.72, 592.22 450.11, 591.69 450.34 C 591.16 450.58, 589.24 451.43, 588.04 451.31 C 586.85 451.20, 586.94 449.81, 585.70 449.76 C 584.45 449.72, 582.32 450.55, 581.82 451.08 C 581.31 451.61, 581.39 452.61, 583.16 452.42 C 584.94 452.23, 588.98 450.55, 590.69 450.13" style="stroke: black; fill: black;"/><path d="M 644.63,522.94 C 645.94 524.31, 647.45 525.01, 650.07 524.92 C 652.70 524.83, 654.36 523.89, 657.76 522.49 C 661.16 521.09, 663.35 519.94, 667.07 517.91 C 670.79 515.88, 672.90 514.62, 676.37 512.35 C 679.85 510.07, 681.84 509.13, 684.45 506.55 C 687.05 503.96, 688.36 502.46, 689.42 499.42 C 690.48 496.37, 690.60 494.36, 689.74 491.31 C 688.89 488.26, 687.85 486.21, 685.16 484.18 C 682.47 482.15, 680.29 481.40, 676.32 481.16 C 672.34 480.92, 669.84 481.63, 665.31 482.98 C 660.78 484.33, 658.13 485.42, 653.67 487.93 C 649.21 490.45, 646.72 492.11, 643.02 495.56 C 639.32 499.01, 637.30 501.05, 635.17 505.20 C 633.05 509.35, 632.18 511.99, 632.39 516.31 C 632.60 520.63, 633.57 523.23, 636.23 526.80 C 638.90 530.37, 641.15 531.85, 645.72 534.17 C 650.28 536.49, 653.23 537.22, 659.05 538.39 C 664.87 539.55, 668.28 539.78, 674.83 539.99 C 681.37 540.20, 685.07 540.03, 691.77 539.43 C 698.48 538.83, 702.02 538.25, 708.34 536.99 C 714.65 535.72, 717.76 534.91, 723.35 533.09 C 728.94 531.27, 731.61 530.18, 736.30 527.88 C 740.99 525.58, 743.04 524.25, 746.80 521.58 C 750.56 518.91, 752.16 517.39, 755.09 514.54 C 758.03 511.69, 759.79 510.03, 761.48 507.35 C 763.17 504.66, 763.19 503.28, 763.53 501.12 C 763.86 498.97, 763.91 497.83, 763.16 496.59 C 762.40 495.35, 761.17 494.80, 759.75 494.93 C 758.32 495.07, 757.50 495.93, 756.04 497.26 C 754.58 498.60, 753.93 499.28, 752.44 501.60 C 750.94 503.92, 750.60 506.01, 748.58 508.86 C 746.55 511.70, 745.36 513.16, 742.30 515.82 C 739.25 518.47, 737.47 519.80, 733.30 522.13 C 729.12 524.47, 726.66 525.63, 721.44 527.50 C 716.22 529.36, 713.24 530.21, 707.21 531.47 C 701.18 532.73, 697.72 533.30, 691.30 533.79 C 684.88 534.29, 681.27 534.35, 675.12 533.95 C 668.97 533.55, 665.70 533.08, 660.54 531.78 C 655.38 530.47, 652.84 529.40, 649.31 527.41 C 645.77 525.43, 644.57 524.15, 642.87 521.86 C 641.17 519.57, 640.90 518.53, 640.82 515.96 C 640.74 513.39, 640.94 511.89, 642.48 509.00 C 644.01 506.12, 645.46 504.25, 648.49 501.53 C 651.52 498.82, 653.82 497.28, 657.63 495.45 C 661.43 493.62, 663.94 492.94, 667.53 492.38 C 671.12 491.82, 673.09 492.46, 675.57 492.63 C 678.06 492.81, 678.74 493.06, 679.94 493.27 C 681.13 493.47, 681.44 493.26, 681.56 493.65 C 681.69 494.03, 681.47 494.15, 680.58 495.20 C 679.68 496.25, 679.03 497.13, 677.10 498.89 C 675.18 500.66, 673.87 502.12, 670.94 504.03 C 668.01 505.95, 665.95 506.97, 662.46 508.46 C 658.97 509.95, 656.63 510.35, 653.49 511.48 C 650.36 512.61, 648.78 512.80, 646.78 514.12 C 644.79 515.44, 643.96 516.30, 643.53 518.06 C 643.10 519.83, 643.32 521.57, 644.63 522.94" style="stroke: black; fill: black;"/><path d="M 747.21,477.89 C 746.74 479.51, 746.80 480.56, 747.97 482.49 C 749.14 484.42, 750.29 485.20, 753.06 487.55 C 755.83 489.89, 758.02 491.17, 761.83 494.21 C 765.64 497.24, 767.92 499.20, 772.11 502.71 C 776.31 506.22, 778.63 508.22, 782.80 511.75 C 786.98 515.29, 789.14 517.12, 793.00 520.39 C 796.87 523.65, 798.84 525.23, 802.12 528.08 C 805.40 530.94, 806.69 532.65, 809.40 534.65 C 812.11 536.66, 813.50 537.44, 815.65 538.12 C 817.80 538.79, 818.90 538.63, 820.15 538.04 C 821.39 537.45, 821.88 536.52, 821.88 535.18 C 821.89 533.83, 821.52 532.96, 820.15 531.31 C 818.77 529.66, 817.66 528.80, 815.01 526.92 C 812.35 525.04, 810.39 524.31, 806.88 521.92 C 803.36 519.53, 801.34 518.04, 797.42 514.97 C 793.49 511.90, 791.34 510.11, 787.26 506.56 C 783.19 503.01, 780.93 500.98, 777.05 497.22 C 773.16 493.46, 771.12 491.32, 767.84 487.75 C 764.56 484.18, 763.21 482.01, 760.66 479.39 C 758.10 476.77, 757.13 475.65, 755.06 474.65 C 752.99 473.65, 751.87 473.74, 750.30 474.39 C 748.73 475.03, 747.67 476.27, 747.21 477.89" style="stroke: black; fill: black;"/><path d="M 774.47,523.13 C 776.30 523.16, 777.18 522.24, 778.88 520.93 C 780.58 519.61, 781.15 518.67, 782.96 516.55 C 784.77 514.44, 785.56 512.66, 787.93 510.34 C 790.31 508.01, 791.93 506.85, 794.83 504.93 C 797.73 503.02, 799.49 502.13, 802.46 500.76 C 805.42 499.40, 807.11 498.92, 809.67 498.11 C 812.22 497.30, 813.42 496.92, 815.23 496.72 C 817.04 496.51, 816.98 496.73, 818.73 497.09 C 820.49 497.44, 822.20 499.17, 823.99 498.50 C 825.79 497.84, 827.91 495.99, 827.71 493.76 C 827.51 491.53, 825.62 488.92, 822.99 487.36 C 820.36 485.80, 817.92 485.85, 814.57 485.96 C 811.22 486.07, 809.55 486.77, 806.26 487.92 C 802.96 489.07, 801.44 490.03, 798.09 491.71 C 794.74 493.39, 792.96 494.30, 789.50 496.32 C 786.04 498.35, 783.98 499.46, 780.77 501.85 C 777.56 504.24, 775.72 505.68, 773.43 508.27 C 771.15 510.87, 770.09 512.33, 769.34 514.83 C 768.60 517.33, 768.69 519.12, 769.72 520.78 C 770.74 522.44, 772.64 523.10, 774.47 523.13" style="stroke: black; fill: black;"/><path d="M 865.00,487.04 C 863.42 487.23, 862.48 487.61, 861.22 489.41 C 859.97 491.22, 858.61 492.86, 858.73 496.06 C 858.84 499.26, 860.12 501.57, 861.78 505.40 C 863.45 509.23, 864.51 511.59, 867.06 515.21 C 869.61 518.83, 871.15 520.80, 874.53 523.49 C 877.91 526.18, 879.96 527.30, 883.96 528.65 C 887.95 530.00, 890.22 530.23, 894.49 530.24 C 898.76 530.24, 901.11 529.87, 905.30 528.69 C 909.50 527.51, 911.65 526.58, 915.46 524.34 C 919.27 522.10, 921.13 520.55, 924.35 517.51 C 927.58 514.47, 929.10 512.49, 931.58 509.14 C 934.07 505.79, 936.15 503.61, 936.77 500.76 C 937.39 497.91, 935.99 495.88, 934.69 494.90 C 933.38 493.92, 931.50 494.35, 930.26 495.85 C 929.02 497.36, 928.13 499.20, 928.47 502.43 C 928.81 505.66, 930.01 508.18, 931.96 511.99 C 933.90 515.79, 935.40 518.12, 938.20 521.46 C 941.01 524.80, 942.63 526.23, 945.97 528.68 C 949.31 531.12, 951.20 532.14, 954.90 533.68 C 958.60 535.23, 960.94 535.87, 964.47 536.40 C 968.00 536.92, 969.90 537.00, 972.55 536.32 C 975.19 535.64, 976.73 534.53, 977.68 532.99 C 978.62 531.45, 978.31 529.98, 977.27 528.62 C 976.22 527.27, 974.71 526.86, 972.45 526.22 C 970.20 525.59, 968.82 525.80, 965.98 525.44 C 963.14 525.09, 961.16 525.33, 958.27 524.46 C 955.38 523.60, 953.95 522.90, 951.54 521.11 C 949.13 519.32, 947.91 518.25, 946.23 515.52 C 944.54 512.79, 944.02 510.74, 943.10 507.47 C 942.18 504.21, 942.77 501.94, 941.64 499.19 C 940.51 496.44, 939.54 495.12, 937.45 493.74 C 935.36 492.36, 933.56 491.85, 931.19 492.30 C 928.82 492.75, 927.20 493.66, 925.61 495.99 C 924.02 498.32, 924.75 500.91, 923.25 503.94 C 921.75 506.98, 920.56 508.62, 918.11 511.17 C 915.66 513.72, 914.03 514.92, 910.99 516.68 C 907.95 518.45, 906.20 519.10, 902.91 519.98 C 899.61 520.86, 897.70 521.10, 894.50 521.10 C 891.31 521.09, 889.70 520.93, 886.92 519.97 C 884.14 519.00, 882.82 518.29, 880.60 516.27 C 878.39 514.25, 877.26 512.73, 875.84 509.85 C 874.41 506.96, 873.91 504.89, 873.48 501.84 C 873.05 498.78, 874.11 496.85, 873.68 494.59 C 873.26 492.33, 872.27 491.78, 871.36 490.55 C 870.45 489.32, 870.39 489.15, 869.12 488.45 C 867.84 487.75, 866.58 486.85, 865.00 487.04" style="stroke: black; fill: black;"/><path d="M 1026.99,481.06 C 1026.48 479.25, 1025.43 477.82, 1022.92 476.85 C 1020.40 475.88, 1018.21 475.53, 1014.42 476.24 C 1010.62 476.94, 1008.07 477.99, 1003.93 480.36 C 999.80 482.72, 997.49 484.53, 993.73 488.05 C 989.96 491.57, 987.77 493.70, 985.11 497.96 C 982.46 502.23, 980.95 504.78, 980.45 509.37 C 979.95 513.96, 980.31 516.84, 982.62 520.90 C 984.93 524.95, 987.15 526.76, 991.98 529.62 C 996.81 532.49, 1000.09 533.43, 1006.77 535.21 C 1013.45 536.99, 1017.63 537.54, 1025.38 538.51 C 1033.14 539.48, 1037.62 539.70, 1045.53 540.06 C 1053.45 540.42, 1057.77 540.36, 1064.95 540.33 C 1072.13 540.29, 1075.74 540.09, 1081.42 539.88 C 1087.10 539.67, 1089.61 539.68, 1093.36 539.28 C 1097.11 538.88, 1098.29 538.75, 1100.17 537.89 C 1102.04 537.03, 1102.17 535.93, 1102.72 534.99 C 1103.27 534.05, 1103.07 533.76, 1102.91 533.18 C 1102.75 532.61, 1102.31 532.47, 1101.92 532.11 C 1101.52 531.76, 1101.66 531.70, 1100.93 531.39 C 1100.21 531.08, 1100.04 530.50, 1098.30 530.57 C 1096.55 530.63, 1095.68 531.03, 1092.21 531.72 C 1088.74 532.42, 1086.41 533.33, 1080.94 534.04 C 1075.47 534.75, 1071.89 535.05, 1064.86 535.28 C 1057.82 535.51, 1053.52 535.58, 1045.76 535.20 C 1038.01 534.82, 1033.56 534.52, 1026.09 533.39 C 1018.61 532.26, 1014.51 531.47, 1008.39 529.57 C 1002.27 527.67, 999.35 526.35, 995.50 523.89 C 991.66 521.43, 990.60 519.94, 989.17 517.26 C 987.73 514.57, 987.77 513.44, 988.33 510.47 C 988.89 507.50, 989.74 505.62, 991.95 502.42 C 994.16 499.22, 996.12 497.12, 999.37 494.46 C 1002.63 491.81, 1004.85 490.44, 1008.22 489.14 C 1011.59 487.84, 1013.56 488.25, 1016.22 487.96 C 1018.88 487.67, 1019.67 488.09, 1021.53 487.69 C 1023.38 487.28, 1024.41 487.26, 1025.51 485.94 C 1026.60 484.61, 1027.51 482.88, 1026.99 481.06" style="stroke: black; fill: black;"/></svg>